<?xml version="1.0" encoding="UTF-8"?>
<svg id="_レイヤー_2" data-name="レイヤー 2" xmlns="http://www.w3.org/2000/svg" width="339.66" height="224.67" viewBox="0 0 339.66 224.67">
  <defs>
    <style>
      .cls-1 {
        fill: #211815;
      }

      .cls-2 {
        fill: #f5f19b;
      }

      .cls-3 {
        fill: #ecbb6e;
      }

      .cls-4 {
        fill: #93c9ce;
      }

      .cls-5 {
        fill: #5c948d;
      }

      .cls-6, .cls-7 {
        fill: #fff;
      }

      .cls-8 {
        fill: #de8a4c;
      }

      .cls-9 {
        fill: #ceeaeb;
      }

      .cls-10 {
        fill: #f2d496;
      }

      .cls-7 {
        stroke: #ceeaeb;
        stroke-miterlimit: 10;
        stroke-width: 2.83px;
      }
    </style>
  </defs>
  <g id="_レイヤー_1-2" data-name="レイヤー 1">
    <g>
      <path class="cls-7" d="M9.89,1.42h239.38c4.68,0,8.47,3.79,8.47,8.47v72.37s9.69,9.69,9.69,9.69h-9.69s0,.5,0,.5c0,4.68-3.79,8.47-8.47,8.47H9.89c-4.68,0-8.47-3.79-8.47-8.47V9.89c0-4.68,3.79-8.47,8.47-8.47Z"/>
      <circle class="cls-9" cx="308.24" cy="61.59" r="30"/>
      <g>
        <path class="cls-2" d="M310.42,79.01c1.36-.08,2.67-.26,3.94-.54,9.94-2.19,10.3-7.26,10.17-11.48-.13-4.22-1.05-19.35-13.24-20.18-12.19-.82-15.33,8.87-17.69,12.02s-10.95,12.98,5.17,18.47c1.57.54,3.13.95,4.67,1.23"/>
        <path class="cls-3" d="M312.08,72.81c-.68-1.85-3.68-3.84-5.2-3.62-1.53.22-4.74,2.07-5.75,2.02s-1.7-.74-1.81,1.6,1.71,3.54,4.16,2.68c3.4,1.94,9.76.49,8.6-2.68Z"/>
        <path class="cls-3" d="M312.08,75.21c-.76,3.71-4.97,5.89-6.25,5.34-1.27-.55-2.88-1.43-1.48-4.66,2.52.54,6.97-.12,7.09-1.65.12-1.53.64.97.64.97Z"/>
        <path class="cls-8" d="M305.6,76.21c-.73,1.36-.38,3.09,1.85,2.01s2.23-2.31,2.23-2.31c0,0,1.46-.73-.49,0-1.95.73-3.58.3-3.58.3Z"/>
        <polygon class="cls-5" points="322.53 43.22 316.36 42.65 319.11 48.2 325.4 48.87 322.53 43.22"/>
        <rect class="cls-5" x="315.77" y="46.35" width="6.72" height="2.92" transform="translate(98.96 -188.1) rotate(38.45)"/>
        <path class="cls-10" d="M289.91,64.74c5.1.33,8.05,5.73,6.16,11.51-4.98-2.71-7.76-5.46-6.16-11.51Z"/>
        <path class="cls-10" d="M324.02,66.89c-5.89-.81-10.4,4.26-9.48,10.84,6.25-1.75,10.01-4.04,9.48-10.84Z"/>
        <ellipse class="cls-1" cx="302.07" cy="67.08" rx="1.85" ry="1.71" transform="translate(188.82 355.03) rotate(-81.05)"/>
        <ellipse class="cls-1" cx="312.29" cy="68.13" rx="1.71" ry="1.85" transform="translate(-3.04 15.87) rotate(-2.9)"/>
        <path class="cls-1" d="M301.9,57.32c1.67-.68,3.18-.04,3.88,1.27.17.3-.14.57-.47.4-1.05-.53-2.08-.79-3.21-1.01-.38-.07-.52-.54-.2-.67Z"/>
        <path class="cls-1" d="M315.18,59.86c-1.24-1.31-2.87-1.35-4.06-.46-.28.21-.11.58.26.56,1.18-.05,2.22.15,3.34.42.37.09.69-.27.46-.52Z"/>
        <path class="cls-1" d="M310.42,79.65c-.33,0-.61-.26-.63-.59-.02-.35.25-.65.59-.67,1.31-.08,2.6-.25,3.84-.53,9.95-2.2,9.78-7.4,9.68-10.85-.13-4.34-.82-8.09-2.05-11.15-2.11-5.25-5.67-8.08-10.6-8.42-9.76-.66-13.4,5.55-15.82,9.66-.49.83-.91,1.55-1.33,2.11-.12.16-.25.33-.39.51-1.68,2.19-4.81,6.26-3.62,10.16.85,2.81,3.84,5.1,8.88,6.82,1.52.52,3.06.93,4.58,1.21.34.06.57.39.5.74-.06.34-.39.57-.74.5-1.58-.3-3.17-.72-4.75-1.26-5.45-1.86-8.71-4.43-9.68-7.65-1.37-4.52,2.14-9.1,3.83-11.3.14-.18.27-.35.38-.5.37-.5.78-1.19,1.25-1.99,2.41-4.11,6.45-10.99,16.99-10.28,5.45.37,9.38,3.47,11.68,9.21,1.28,3.2,2,7.09,2.14,11.58.15,4.69-.55,9.88-10.67,12.12-1.3.29-2.66.47-4.04.55-.01,0-.02,0-.04,0Z"/>
        <path class="cls-1" d="M301.13,66.45c-.07,0-.14-.02-.2-.07-.77-.61-1.16-1.23-1.45-2.3-.05-.17.05-.34.22-.39.17-.05.34.05.39.22.29,1.07.66,1.52,1.24,1.97.14.11.16.31.05.44-.06.08-.15.12-.25.12Z"/>
        <path class="cls-1" d="M300.94,67.05c-.81,0-1.69-.47-2.38-1.28-.11-.13-.1-.33.04-.44.13-.11.33-.1.44.04.61.72,1.4,1.12,2.06,1.05.17-.02.33.11.35.28.02.17-.11.33-.28.35-.08,0-.15.01-.23.01Z"/>
        <path class="cls-1" d="M313.49,67.64c-.16,0-.29-.11-.31-.27-.02-.17.1-.33.27-.35.66-.09,1.43-.66,1.86-1.39.09-.15.28-.2.43-.11.15.09.2.28.11.43-.53.9-1.46,1.58-2.32,1.7-.01,0-.03,0-.04,0Z"/>
        <path class="cls-1" d="M314.58,68.91c-.38,0-.76-.07-1.14-.24-.16-.07-.23-.26-.16-.42.07-.16.26-.23.42-.16.86.39,1.82.08,2.49-.24.16-.08.35-.01.42.14.08.16.01.35-.14.42-.51.25-1.18.49-1.89.49Z"/>
        <path class="cls-1" d="M307.12,76.99c-1.07,0-2.22-.33-3.41-.99-2.32.66-3.62.03-4.3-.62-.86-.83-1.19-2.15-.85-3.44.35-1.32.96-1.43,1.86-1.46.65-.01,1.63-.04,3.23-.88,3.58-1.88,5.67-.8,7.72,1.4.21.22.19.57-.03.78-.22.21-.57.19-.78-.03-1.84-1.98-3.4-2.75-6.39-1.17-1.83.96-3.01.99-3.72,1q-.65.01-.82.63c-.24.9-.02,1.83.54,2.37.7.67,1.9.78,3.44.29.15-.05.31-.03.44.05,1.93,1.13,4.68,1.81,6.87-1.38.15-.21.42-.3.66-.2,0,0,.72.29,1.36.43.3.07.49.36.42.66-.07.3-.36.49-.66.42-.41-.09-.83-.23-1.13-.33-1.24,1.64-2.76,2.47-4.47,2.47Z"/>
        <path class="cls-1" d="M306.42,81.16c-.61,0-1.2-.14-1.74-.43-.87-.47-1.42-1.13-1.64-1.97-.44-1.65.61-3.36.66-3.43.16-.26.5-.34.76-.18.26.16.34.5.18.76,0,.01-.84,1.38-.53,2.57.14.54.5.96,1.1,1.28.85.46,1.91.39,2.98-.19,1.52-.82,3.14-2.8,3.35-5.36.02-.3.29-.53.6-.5.3.02.53.29.5.6-.21,2.62-1.75,5.07-3.92,6.24-.77.42-1.55.63-2.29.63Z"/>
        <path class="cls-1" d="M320.88,52.14c-.14,0-.27-.04-.39-.14-.27-.22-.32-.61-.1-.89l2.27-2.88c.13-.17.35-.26.56-.24l1.1.12-2.18-4.3-4.7-.44.66,1.33c.11.21.08.47-.06.66l-1.82,2.42c-.21.28-.61.33-.88.12-.28-.21-.33-.6-.12-.88l1.59-2.11-.99-1.99c-.1-.2-.08-.45.05-.64.13-.19.35-.29.58-.27l6.18.58c.22.02.41.15.5.34l2.87,5.65c.1.21.09.45-.04.64-.13.19-.36.29-.59.27l-1.91-.2-2.05,2.6c-.12.16-.31.24-.5.24Z"/>
      </g>
      <g>
        <path d="M21.31,27.57c1.23,0,2.59-.18,3.94-.53.08-.03.12-.03.17-.03.09,0,.13.06.17.2.04.33.08.81.08,1.3,0,.3-.03.39-.17.45-.45.24-2.47.46-4.21.46-2.26,0-3.55-.38-4.59-1.35-.5-.46-.99-1.28-.99-1.61,0-.22.13-.31,1.37-1.02.54,1.49,1.79,2.12,4.25,2.12ZM21.45,18.95c.87,0,1.38-.03,2.4-.18h.11c.12,0,.17.04.2.13.03.18.06.63.06,1.17,0,.35-.03.46-.12.53-.12.07-1.42.17-2.43.17-1.33,0-2.45-.11-3.69-.34-.85-.17-.9-.21-.9-.74,0-.34.03-.92.08-1.33,1.3.4,2.73.6,4.3.6Z"/>
        <path d="M31.59,21.77c-.67.13-1.32.3-1.74.45-.11.04-.2.06-.27.06-.13,0-.21-.07-.3-.33-.1-.33-.21-.86-.27-1.38.22.01.33.03.46.03.57,0,1.18-.08,2.13-.26l.03-.9c.02-.21.02-.36.02-.41,0-.64-.02-1.04-.08-1.44.79.03,1.29.09,1.77.21.2.04.29.13.29.27,0,.06-.01.1-.09.27-.13.29-.15.46-.25,1.71.33.23.62.54.62.69,0,.09-.04.16-.18.33-.22.24-.3.34-.58.76q-.03.39-.03.5c.5-.44.82-.72,1.33-1.1.57-.43,1.2-.84,1.65-1.06.58-.32.99-.42,1.53-.42.79,0,1.37.3,1.68.87.18.36.25.71.25,1.29,0,.51-.03.99-.12,2.08-.12,1.29-.18,2.25-.18,2.84s.13.76.55.76c.6,0,1.33-.43,1.98-1.17.01.59.06.77.25,1.37.04.12.06.2.06.26,0,.16-.08.3-.33.49-.61.5-1.5.81-2.29.81-1.32,0-1.92-.69-1.92-2.21,0-.69.04-1.58.2-3.67.04-.5.06-.92.06-1.12,0-.62-.21-.9-.66-.9s-1.33.48-2.52,1.39c-.6.45-.94.76-1.57,1.41v.69c0,1.12.07,3.72.13,4.63v.18c0,.12-.02.17-.04.21-.08.09-.51.15-1.2.15-.43,0-.53-.06-.53-.32,0-.09,0-.24.02-.4v-.35q.01-.52.08-3.38-.86,1.11-1.37,1.94c-.13.21-.23.29-.34.29s-.39-.24-.86-.75c-.29-.33-.39-.46-.39-.55,0-.08.03-.13.13-.24.95-.97,1.74-1.91,2.87-3.31l.03-1.28Z"/>
        <path d="M45.73,21.35c-.39.09-.53.13-1.07.33-.19.07-.3.1-.39.1-.33,0-.63-.61-.9-1.91.96-.04,1.31-.09,2.97-.34,1.8-.27,4.08-.62,5.28-.77,1.35-.18,2.43-.36,3-.48.1-.03.15-.03.22-.03.2,0,.27.09.41.46.12.31.21.76.21.97,0,.18-.06.24-.27.24-.32,0-.6.03-.89.08-2.53.42-4.56,2.64-4.56,4.98,0,1.75,1.38,2.91,3.72,3.12.21.01.29.09.29.27,0,.38-.15,1.09-.29,1.42-.08.17-.19.24-.39.24s-.65-.09-1.11-.22c-2.55-.75-3.88-2.37-3.88-4.67,0-1.25.41-2.4,1.19-3.39.42-.54.78-.84,1.63-1.43-1.96.33-4.04.72-5.17,1.01ZM53.41,21.74c.21,0,1.48,1.42,1.48,1.65,0,.08-.09.17-.36.41-.29.24-.3.24-.42.28q-.08.03-.11.03c-.06,0-.08-.02-.34-.44-.24-.38-.5-.71-.97-1.2-.03-.03-.08-.11-.08-.12.03-.08.04-.12.06-.12.04-.06.3-.27.36-.31.15-.08.24-.14.25-.15.01-.03.04-.03.04-.03h.08ZM55.98,22.77c-.22.17-.36.25-.43.25-.06,0-.09-.03-.17-.15-.45-.67-.67-.96-1.16-1.42-.03-.05-.06-.09-.06-.12,0-.07.09-.16.3-.31s.39-.24.46-.24c.11,0,.29.13.6.45.44.45.84,1,.84,1.14,0,.09-.11.2-.39.41Z"/>
        <path d="M66.3,23.85v-7.04h4.79v1.64h-3v5.4h-1.79Z"/>
        <path d="M74.82,18.35c0-.57-.02-.75-.08-1.05h1.67c-.04.3-.08.58-.08,1.05h4.51c-.01-.57-.03-.78-.08-1.05h1.67c-.06.3-.07.54-.07,1.05h.96c.67,0,1.15-.03,1.57-.09v1.46c-.51-.04-.99-.08-1.57-.08h-.96v4.05h1.15c.57,0,1.14-.03,1.59-.09v1.46c-.42-.06-.9-.09-1.54-.09h-1.47c.88.75,1.93,1.23,3.42,1.59-.32.52-.5.91-.69,1.51-1.02-.39-1.72-.74-2.58-1.31v.98c-.42-.04-.69-.06-1.32-.06h-1.67v1h3.51c.67,0,1.16-.03,1.61-.09v1.58c-.46-.06-.99-.09-1.73-.09h-8.01c-.7,0-1.24.03-1.72.09v-1.56c.41.04.9.07,1.63.07h3.21v-1h-1.44c-.6,0-.95.01-1.32.06v-.99c-.84.6-1.47.93-2.56,1.35-.17-.56-.32-.88-.71-1.5,1.41-.33,2.46-.84,3.33-1.63h-1.4c-.64,0-1.09.03-1.56.09v-1.46c.42.06.92.09,1.54.09h1.17v-4.05h-.78c-.6,0-1.09.03-1.59.08v-1.46c.43.06.93.09,1.59.09h.78ZM76.92,24.96c-.43.55-.75.87-1.37,1.36.24.01.41.01.77.01h1.44c0-.46-.01-.71-.08-.99h1.65c-.06.32-.08.53-.08.99h1.67c.38,0,.53,0,.72-.01-.66-.5-.99-.83-1.44-1.36h-3.29ZM80.85,20.24v-.6h-4.51v.6h4.51ZM80.85,21.95v-.57h-4.51v.57h4.51ZM80.85,23.69v-.62h-4.51v.62h4.51Z"/>
        <path d="M95.95,28.62c.52.09,1,.12,1.59.12.63,0,1.18-.03,2.47-.15-.22.6-.31.95-.39,1.63-.57.02-1.02.03-1.32.03-2.16,0-3.4-.25-4.48-.9-.46-.29-.77-.54-1.08-.93-.44.93-.78,1.41-1.58,2.2-.41-.52-.66-.78-1.11-1.14.35-.27.51-.44.69-.63-.27-.01-.36-.01-.74-.01h-1.35v1.32h-1.38c.04-.41.08-.9.08-1.46v-2.67c0-.41.01-.77.03-1.12q-.34.61-.73,1.14c-.12-.66-.3-1.32-.51-1.8.73-.92,1.17-1.76,1.54-3.03.24-.78.33-1.27.43-2.17h-.29c-.55,0-.84.01-1.26.06v-1.53c.44.06.87.08,1.44.08h1.6c.6,0,1.02-.02,1.47-.08v.68c.29.03.38.03.65.03h.76c0-.51-.01-.79-.06-1.08h1.35c-.04.27-.06.45-.06,1.08h.27c.38,0,.57-.01.85-.06v1.41c-.33-.05-.52-.06-.79-.06h-.18c.3.43.57.67,1.16,1.08-.24.34-.36.57-.5.96.66-.53,1.12-1.09,1.67-2.04h-.24c-.27,0-.46.01-.81.06v-1.41c.36.06.43.06.81.06h.45c0-.55-.02-.76-.06-1.08h1.35c-.04.27-.06.51-.06,1.08h.84c.53,0,.83-.01,1.11-.06v1.4c-.3-.03-.66-.04-1.04-.04h-.69c.75.96,1.2,1.33,2.17,1.89-.23.32-.36.62-.57,1.28-.92-.64-1.33-1.06-1.88-1.89.03.19.06.51.06.84v.51c0,.27.01.57.04.79h-1.33c.03-.32.04-.53.04-.79v-.45c0-.25.01-.61.04-.82-.42.78-.78,1.23-1.51,1.88-.21-.41-.33-.57-.72-.96.12-.07.17-.1.27-.18q-.32-.25-.79-.79c.03.46.04.75.04.84v.51c0,.33.01.51.03.78h-1.29c.03-.32.04-.45.04-.79v-.5c0-.09.01-.29.01-.38q.03-.29.03-.46c-.34.68-.65,1.07-1.28,1.63-.15-.27-.54-.69-.87-.93.83-.62,1.14-.97,1.8-1.99h-.38c-.32,0-.63.01-.86.04v-.53c-.39-.03-.64-.04-1.23-.04h-.17c-.18,1.24-.38,2.1-.77,3.2h1.17c.47,0,.51,0,.86-.03-.01.27-.03.56-.03,1.05v4.59c0,.43,0,.66.02.88.34-.42.6-.87.81-1.41.22-.6.33-1.06.43-2.12l1.44.24c-.12.71-.21,1.16-.34,1.68.36.51.69.78,1.3,1.07v-3.55h-2.04c-.65,0-.9.01-1.26.06v-1.46c.38.04.67.06,1.26.06h5.14c.66,0,1.02-.02,1.3-.06l.86.78q-.08.12-.22.42c-.26.5-.54.89-1.08,1.51.25-.03.3-.03.5-.06v1.41c-.38-.05-.74-.06-1.37-.06h-1.63v1.36ZM88.66,27.57h.93v-3.95h-.93v3.95ZM97.59,25.98c.3,0,.41,0,.64-.02-.39-.27-.72-.45-1.12-.6.35-.25.57-.46.75-.72h-1.9v1.33h1.63Z"/>
        <path d="M102.54,25.44c-.1,2.17-.21,3.09-.53,4.32l-1.23-.57c.33-1.15.5-2.31.55-3.94l1.2.2ZM105.31,24.96c-.06-.29-.07-.38-.13-.62-.4.06-.6.07-.96.1v4.32c0,.92.02,1.34.09,1.76h-1.45c.07-.45.09-.87.09-1.76v-4.21c-.58.06-.81.08-1.02.09-.5.03-.67.04-.94.1l-.14-1.47c.26.03.38.03.69.03h.29c.09-.12.31-.45.67-.97-.51-.77-.93-1.32-1.65-2.13l.69-1.21.43.5c.44-.7.96-1.87,1.05-2.38l1.39.57c-.11.14-.15.24-.3.53-.45.92-.88,1.67-1.31,2.31.24.33.29.39.48.66.58-.92,1.18-2.04,1.32-2.46l1.35.69c-.12.17-.18.27-.46.74-.45.75-1.53,2.32-2.15,3.13q.79-.04,1.5-.12c-.13-.39-.19-.57-.42-1.11l.99-.38c.34.77.57,1.46.84,2.45.04-1.11.08-2.03.08-3.15,0-.66-.01-.97-.06-1.33.33.03.67.04,1.32.04h4.72c.67,0,1.05-.02,1.32-.04-.03.31-.04.64-.04,1.2v.95c0,.57.01.92.04,1.21q-.18-.02-1.18-.03h-4.74c-.01.21-.01.24-.01.42-.02.12-.02.13-.02.25.3.02.51.02.93.02h3.96c.65,0,1.05-.02,1.37-.06-.03.41-.04.69-.04,1.43v4.09c0,.96-.33,1.26-1.38,1.26-.04,0-.11,0-.2-.01-.01-.63-.07-.87-.25-1.29.11.02.17.02.29.02.29,0,.33-.04.33-.29v-1.32h-.69v1.34c0,.79.02,1.05.05,1.39h-1.17c.05-.39.05-.63.05-1.39v-1.34h-.66v1.34c0,.81,0,1.02.04,1.39h-1.17c.04-.39.04-.63.04-1.39v-1.34h-.66v1.79c0,.55.01.92.04,1.26h-1.27c.03-.43.04-.72.04-1.27v-3.69c-.27,2.36-.46,3.13-1.2,4.85-.34-.51-.62-.77-1.16-1.12.25-.45.38-.69.62-1.28l-.69.18c-.09-1.27-.18-1.93-.36-2.76l.97-.21c.21.95.25,1.26.33,1.96.18-.81.32-1.68.38-2.56l-.9.36ZM105.79,17.63c.39.06.85.09,1.56.09h5.16c.72,0,1.18-.03,1.56-.09v1.49c-.33-.04-.75-.06-1.41-.06h-5.71c-.58,0-.86.01-1.16.06v-1.49ZM107.76,21.18c0,.13,0,.32-.01.52h4.42v-.81h-4.41v.29ZM109.17,24.93h-.66v1.28h.66v-1.28ZM110.91,26.21v-1.28h-.66v1.28h.66ZM112.68,26.21v-1.28h-.69v1.28h.69Z"/>
        <path d="M119.85,23.84v7.02h-4.78v-1.63h3.01v-5.38h1.77Z"/>
        <path d="M131.82,26.52c-.75,0-1.31.03-1.75.09v-1.59c.51.06,1.08.09,1.74.09h3.93v-.1c0-.29-.01-.53-.04-.78h.63c.62-.32,1.08-.65,1.7-1.17h-3.96c-.6,0-1.04.01-1.46.06v-1.42c.42.04.86.06,1.47.06h4.75c.56,0,.86-.01,1.1-.06l.79.87q-.21.18-.53.44c-1.02.87-1.75,1.42-2.86,2.1h0s3.73.01,3.73.01c.69,0,1.35-.03,1.77-.09v1.59c-.4-.06-1.02-.09-1.78-.09h-3.72v2.52c0,.74-.15,1.05-.56,1.2-.36.13-.81.18-1.67.18-.18,0-.64-.01-1.42-.04-.15-.78-.22-1.02-.48-1.53.71.09,1.35.13,1.78.13.65,0,.75-.04.75-.33v-2.13h-3.91ZM132.57,19.41c-.35-.64-.53-.93-1.08-1.62l1.44-.44c.53.63.81,1.08,1.32,2.05h1.51c-.25-.73-.46-1.17-.87-1.81l1.5-.42c.58,1.09.67,1.3.99,2.23h1.21c.44-.55.93-1.48,1.18-2.16l1.56.44c-.33.6-.76,1.29-1.09,1.72h.66c.99,0,1.25-.01,1.77-.06-.04.38-.06.66-.06,1.2v1.33c0,.39.03.75.08,1.1h-1.58v-2.23h-9.37v2.23h-1.58c.06-.33.08-.66.08-1.11v-1.32c0-.51-.01-.86-.06-1.2.66.06.74.06,1.71.06h.68Z"/>
        <path d="M156.94,22.26c0,.74-.06.96-.33,1.17-.27.2-.67.27-1.57.27-.26,0-.62-.01-1.12-.03-.02-.46-.09-.84-.23-1.18-.64.29-.84.36-1.47.6-.18.06-.22.07-.36.13-.33.57-.38.66-.64,1.05h2.98c.84,0,1.08-.01,1.58-.04-.04.48-.06.74-.06,1.63v2.97c0,.86.01,1.25.07,1.67h-1.63v-.6h-6.49v.6h-1.61c.06-.43.08-.84.08-1.67v-2.96c0-.91,0-1.14-.04-1.65.46.03.76.04,1.56.04h1.95c.15-.23.17-.27.42-.75-.3.12-.64.17-1.26.17-.22,0-.65-.02-.95-.02-.04-.51-.1-.79-.31-1.26-.6.29-1.16.54-1.88.83-.32.12-.41.17-.65.29l-.49-1.42c1.05-.2,2.49-.75,4.09-1.58l.04,1.33c-.42.21-.46.24-.96.48.45.03.61.04.78.04.68,0,.72-.02.72-.35v-3.13h-3.09c.76.41,1.21.71,1.92,1.28l-1.04.95c-.6-.57-1-.87-1.88-1.38l.96-.84h-.15c-.61,0-.92.02-1.3.08v-1.5c.45.06.92.09,1.59.09h3.03c.78,0,1.06-.01,1.44-.06-.03.31-.04.66-.04,1.47v3.27c0,.3-.01.46-.08.7l.89.17-.39-1.17c1.08-.17,2.33-.62,3.9-1.39l.04,1.3c-.48.25-.65.33-.96.48.3.03.64.06.81.06.63,0,.67-.03.67-.36v-3.13h-3.3c.93.51,1.25.71,2,1.29l-.99.95c-.75-.65-1.11-.9-1.93-1.38l.88-.84c-.48,0-.75.01-1.16.06v-1.49c.48.06.99.08,1.62.08h3.02c.7,0,1.12-.01,1.38-.04-.04.36-.06.76-.06,1.49v3.25ZM147.66,26.43h6.51v-.96h-6.51v.96ZM147.66,28.62h6.51v-1.02h-6.51v1.02Z"/>
        <path d="M162.81,26.42c.04.06.06.11.06.17q0,.09-.25.78c-.32.92-.51,1.67-.57,2.25-.01.19-.08.27-.27.32-.21.06-.61.09-1,.09-.15,0-.22-.03-.27-.12-.13-.28-.38-1.32-.5-2.16-.1-.71-.15-1.44-.15-2.21,0-1.73.2-3.36.74-6.3.09-.48.12-.71.17-1.17.69.09,1.17.22,1.6.44.23.12.32.22.32.36,0,.09-.03.17-.11.29-.61,1.05-1.18,4.29-1.18,6.69,0,.36.01.93.06,1.65.36-.93.52-1.35.85-2.07.11.41.21.6.51,1ZM165.33,22.47c-.72,0-.87-.03-.92-.2-.04-.13-.09-.62-.09-.96,0-.12,0-.24.01-.51.41.03.64.04,1.14.04.81,0,1.32-.01,2.1-.08-.02-1.9-.03-2.14-.18-2.85.74.01,1.29.07,1.77.2.22.06.31.13.31.29,0,.06-.01.1-.06.22-.15.34-.23.93-.25,1.98.55-.08,1.03-.18,1.93-.39.08-.03.1-.03.15-.03.09,0,.13.04.17.15.03.14.07.71.07,1.02,0,.38-.01.43-.17.5-.24.12-.9.22-2.17.39,0,1.03.09,2.74.2,3.72.95.41,1.59.75,2.25,1.21.42.3.51.41.51.51,0,.17-.27.67-.58,1.11-.18.25-.27.33-.38.33s-.1,0-.45-.33c-.33-.33-.67-.59-1.33-1.02v.12c0,1.32-1.09,2.19-2.76,2.19s-2.8-.9-2.8-2.25,1.14-2.35,2.66-2.35c.55,0,.84.01,1.24.08q-.06-1.17-.1-3.18c-.65.04-1.67.09-2.26.09ZM166.56,26.88c-.75,0-1.25.34-1.25.87,0,.48.46.78,1.19.78.79,0,1.21-.36,1.21-1.05,0-.21-.02-.38-.02-.38-.39-.15-.73-.22-1.14-.22Z"/>
        <path d="M175.06,25.49c-.07,1.95-.18,2.86-.51,4.3l-1.32-.63c.22-.69.28-.99.39-1.74.12-.88.17-1.39.17-2.16l1.27.23ZM177.99,25.05c-.06-.33-.1-.48-.15-.68-.58.08-.66.08-.86.09v4.56c0,.75.02,1.05.09,1.51h-1.56c.08-.48.09-.88.09-1.53v-4.41c-.31.03-1.11.09-1.32.1-.5.02-.58.03-.86.08l-.15-1.47c.34.03.48.03.71.03h.43c.39-.51.48-.63.79-1.05-.72-.93-1.26-1.56-1.91-2.19l.77-1.21c.22.25.3.33.48.52.55-.93.93-1.77,1.05-2.34l1.41.53c-.08.11-.12.18-.21.38-.64,1.28-.97,1.86-1.37,2.49.23.29.26.31.54.69.84-1.32,1.23-2.01,1.38-2.47l1.29.69c-.12.17-.22.33-.51.78-.55.92-1.46,2.21-2.22,3.15.67-.03,1-.04,1.58-.1-.15-.43-.21-.6-.42-1.08l1.05-.5c.4.87.57,1.29.88,2.27.81-.33,1.77-.87,2.43-1.37-.45-.5-.75-.88-1.12-1.47-.33.36-.57.57-1.26,1.11-.25-.52-.54-.87-.93-1.21.78-.51,1.38-1.11,2-1.98.43-.63.81-1.4.88-1.85l1.57.46c-.03.06-.19.36-.49.9h1.8c.64,0,.93-.01,1.26-.07l.74.85c-.05.06-.24.41-.62,1.02-.6,1.03-.98,1.54-1.61,2.2.9.65,1.73,1.04,3.21,1.5-.4.51-.62.88-.87,1.54-1.59-.69-2.52-1.23-3.49-2.01-1.11.88-2.12,1.47-3.45,2-.11-.33-.15-.42-.38-.81l-.69.35ZM178.48,25.26c.3,1.23.35,1.53.58,3.44l-1.24.36c-.06-1.15-.21-2.4-.45-3.51l1.11-.29ZM185.1,30.55c-1.75-.9-3.13-1.39-5.7-2.02l.71-1.42c2.12.55,3.27.96,5.62,1.96l-.63,1.48ZM184.26,27.64c-1.17-.81-2.29-1.39-3.62-1.92l.83-1.23c1.51.62,2.5,1.11,3.57,1.77l-.78,1.38ZM181.32,19.79c-.03.06-.04.09-.09.13.53.83.69,1.04,1.3,1.64.54-.56.79-.89,1.31-1.77h-2.52Z"/>
        <path d="M190.44,19.4c-.79,0-1.33.03-1.96.09v-1.71c.53.06,1.12.09,1.96.09h7.35c.77,0,1.23-.03,1.56-.07l.99,1.12c-.21.19-.32.29-.57.54-1.59,1.54-2.71,2.42-4.59,3.53v5.85c0,1.06-.53,1.41-2.12,1.41-.54,0-.96-.02-2.04-.08-.1-.69-.19-1.05-.42-1.69.95.13,1.61.19,2.27.19.49,0,.64-.08.64-.33v-5.38c0-.58-.03-1.03-.08-1.44h1.29c1.14-.61,1.86-1.15,2.89-2.11h-7.18Z"/>
        <path d="M209.94,28.96c0,.66-.52,1.19-1.18,1.19s-1.19-.53-1.19-1.19.53-1.18,1.19-1.18,1.18.52,1.18,1.18ZM209.42,26.75h-1.33l-.41-8.98h2.16l-.42,8.98Z"/>
        <path d="M18.55,51.23c-.91,1.2-1.83,2.17-2.95,3.21-.3.25-.36.31-.48.43l-1.08-1.51c.3-.15.58-.36,1.25-.93.98-.84,1.44-1.34,2.29-2.45l.97,1.25ZM15.58,44.09c1.07.85,1.58,1.33,2.48,2.31l-1.25,1.17c-.88-1.09-1.32-1.53-2.47-2.44l1.24-1.04ZM22.65,47.64c-.04.2-.06.39-.06.62,0,1.05.18,2.16.45,2.88.39,1.01,1.11,1.95,2.01,2.66.71.56,1.26.87,2.43,1.35-.4.51-.67.96-.92,1.53-1.42-.78-2.13-1.28-2.91-2.05-.86-.86-1.47-1.83-1.83-2.96-.3,1.08-.83,2.07-1.49,2.83-.73.85-1.69,1.53-3.09,2.19-.24-.53-.43-.83-.9-1.35,1.15-.48,1.96-1,2.74-1.8,1.23-1.24,1.92-3.13,1.92-5.23,0-.22-.01-.41-.04-.66h1.68ZM24.93,45.6c.66,0,1.05-.01,1.4-.08l.87.83c-.12.24-.17.34-.33.75-.62,1.47-1.11,2.33-2.04,3.48-.51-.43-.57-.46-1.33-.91.88-.87,1.36-1.62,1.79-2.69h-4.77c-.58,1.15-1.17,2-2.13,3.02-.38-.48-.71-.81-1.2-1.16,1.52-1.35,2.46-3.07,2.93-5.37l1.74.31c-.12.29-.17.36-.43,1.12-.09.24-.15.41-.27.69h3.79Z"/>
        <path d="M39.75,56.75v-.78h-8.97v.78h-1.68c.06-.46.09-1.07.09-1.86v-9.1c0-.71-.03-1.16-.09-1.74.52.06.99.07,1.69.07h8.92c.71,0,1.17-.01,1.7-.07-.06.52-.08,1-.08,1.74v9.12c0,.78.03,1.48.08,1.84h-1.67ZM30.78,54.54h8.97v-8.98h-8.97v8.98ZM36.78,47.19c.63,0,1-.01,1.38-.04-.03.34-.04.69-.04,1.14v3.44c0,.48.01.78.04,1.14-.44-.03-.78-.04-1.38-.04h-3.08c-.72,0-.95.01-1.39.04.04-.39.06-.71.06-1.14v-3.44c0-.42-.01-.75-.06-1.14.38.03.76.04,1.39.04h3.08ZM33.88,51.46h2.71v-2.92h-2.71v2.92Z"/>
        <path d="M44.74,49.05c-.12.03-.18.06-.27.1-.08.04-.12.06-.2.06-.32,0-.55-.58-.74-1.69.12.01.23.01.29.01.63,0,2.24-.2,3.2-.39.31-1.32.48-2.31.48-3.03,0-.06,0-.13-.01-.25.64.07,1.26.21,1.68.38.24.09.36.22.36.38,0,.07-.02.12-.09.24q-.23.41-.69,2.05c.36-.04.76-.08,1.02-.08.62,0,1.1.12,1.44.36.6.43.9,1.32.9,2.68,0,2.24-.41,4.14-1.1,5.08-.48.66-1.11.98-1.99.98-.54,0-1.05-.08-1.2-.17q-.12-.07-.17-.63c-.04-.41-.13-.75-.32-1.17.78.25.98.3,1.46.3.72,0,1.02-.34,1.35-1.54.23-.79.35-1.83.35-2.92,0-1.17-.29-1.59-1.08-1.59-.27,0-.71.03-1.05.09-.04.16-.06.18-.12.39-.42,1.53-1.19,3.55-1.95,5.17-.79,1.63-.99,1.96-1.18,1.96-.12,0-.53-.21-.96-.5-.35-.21-.44-.3-.44-.42q0-.08.62-1.05c.83-1.28,1.91-3.78,2.28-5.25-1.11.24-1.73.39-1.86.44ZM52.39,47.37c0-.11.14-.24.57-.59.3-.22.45-.31.55-.31.09,0,.17.04.36.24.88.85,1.71,1.99,2.19,2.98.15.33.24.54.24.63,0,.15-.04.2-.52.58-.3.24-.65.44-.77.44-.1,0-.15-.04-.25-.3-.3-.73-.58-1.3-.94-1.86-.39-.6-.47-.69-1.35-1.63-.06-.09-.08-.13-.08-.18Z"/>
        <path d="M66.01,49.08c2.05,0,3.39,1.21,3.39,3.06s-1.12,3.01-3.37,3.73c-.81.26-2.15.5-2.75.5-.32,0-.39-.08-.6-.51-.16-.34-.34-.56-.79-.87,3.77-.3,5.62-1.26,5.62-2.89,0-.92-.64-1.46-1.72-1.46-1.37,0-2.78.71-3.93,1.95-.21.21-.41.46-.54.69s-.23.3-.36.3c-.22,0-.75-.22-1.11-.49-.18-.14-.24-.24-.24-.48q0-.12.04-.48s0-.15.01-.31c.08-.96.12-1.37.3-2.71q.03-.17.14-.87s.04-.33.12-.89c.01-.13.03-.25.03-.49.72.11,1.4.27,1.68.43.12.06.18.14.16.23,0,.06-.03.1-.07.2-.17.25-.21.39-.35.96-.13.57-.34,1.89-.38,2.38,1.53-1.41,2.87-1.96,4.71-1.96ZM65.74,44.81c.58.34.76.51.76.67,0,.13-.24.58-.5.96-.24.34-.33.42-.45.42-.07,0-.12-.03-.3-.17-1-.76-1.8-1.2-2.92-1.59-.22-.09-.27-.12-.27-.24,0-.15.12-.4.39-.79.24-.36.34-.45.51-.45.36,0,1.83.63,2.78,1.18Z"/>
        <path d="M76.05,52.67c.04.06.06.11.06.17q0,.09-.25.78c-.32.92-.51,1.67-.57,2.25-.01.19-.08.27-.27.32-.21.06-.61.09-1,.09-.15,0-.22-.03-.27-.12-.13-.28-.38-1.32-.5-2.16-.1-.71-.15-1.44-.15-2.21,0-1.73.2-3.36.74-6.3.09-.48.12-.71.17-1.17.69.09,1.17.22,1.6.44.23.12.32.22.32.36,0,.09-.03.17-.11.29-.61,1.05-1.18,4.29-1.18,6.69,0,.36.01.93.06,1.65.36-.93.52-1.35.85-2.07.11.41.21.6.51,1ZM78.57,48.72c-.72,0-.87-.03-.92-.2-.04-.13-.09-.62-.09-.96,0-.12,0-.24.01-.51.41.03.64.04,1.14.04.81,0,1.32-.01,2.1-.08-.02-1.9-.03-2.14-.18-2.85.74.01,1.29.07,1.77.2.22.06.31.13.31.29,0,.06-.01.1-.06.22-.15.34-.23.93-.25,1.98.55-.08,1.03-.18,1.93-.39.08-.03.1-.03.15-.03.09,0,.13.04.17.15.03.14.07.71.07,1.02,0,.38-.01.43-.17.5-.24.12-.9.22-2.17.39,0,1.03.09,2.74.2,3.72.95.41,1.59.75,2.25,1.21.42.3.51.41.51.51,0,.17-.27.67-.58,1.11-.18.25-.27.33-.38.33s-.1,0-.45-.33c-.33-.33-.67-.59-1.33-1.02v.12c0,1.32-1.09,2.19-2.76,2.19s-2.8-.9-2.8-2.25,1.14-2.35,2.66-2.35c.55,0,.84.01,1.24.08q-.06-1.17-.1-3.18c-.65.04-1.67.09-2.26.09ZM79.8,53.13c-.75,0-1.25.34-1.25.87,0,.48.46.78,1.19.78.79,0,1.21-.36,1.21-1.05,0-.21-.02-.38-.02-.38-.39-.15-.73-.22-1.14-.22Z"/>
        <path d="M95.22,50.1v-7.04h4.79v1.64h-3v5.4h-1.79Z"/>
        <path d="M110.4,49.05h2.13c.68,0,1.1-.03,1.54-.09v1.63c-.48-.04-.93-.08-1.56-.08h-1.62c.86,1.5,2.1,2.75,3.58,3.58-.48.48-.69.78-.99,1.5-.61-.44-1.05-.86-1.62-1.5-.74-.86-1.05-1.32-1.53-2.22.03.54.04,1.01.04,1.44v1.82c0,.67.03,1.2.09,1.66h-1.67c.06-.46.09-1,.09-1.68v-1.71c0-.41.02-.88.04-1.49-.91,1.65-1.93,2.76-3.39,3.74-.38-.71-.58-1-.9-1.36,1.54-.89,2.8-2.18,3.67-3.78h-.95c-.64,0-1.11.03-1.58.09v-.6c-.25.36-.43.69-.61,1.22-.38-.58-.6-1.05-.89-1.8.03.46.06,1.27.06,1.9v3.69c0,.77.03,1.32.09,1.77h-1.67c.06-.46.09-1.02.09-1.77v-3.1c0-.57.02-.93.11-1.86-.44,1.46-.87,2.43-1.52,3.41-.18-.68-.37-1.11-.67-1.61.72-.92,1.47-2.61,1.92-4.35h-.57c-.44,0-.69.01-.96.06v-1.53c.24.04.51.06.96.06h.72v-1.16c0-.76-.01-1.14-.08-1.5h1.65c-.06.39-.08.8-.08,1.5v1.16h.43c.36,0,.54-.02.78-.06v1.43c.57-1.02,1.05-2.52,1.09-3.5l1.46.38c-.06.17-.1.34-.21.79-.08.27-.1.41-.18.69h1.15v-.99c0-.62-.03-.99-.09-1.37h1.68c-.06.36-.09.77-.09,1.37v.99h1.7c.72,0,1.14-.03,1.54-.09v1.58c-.42-.04-.9-.08-1.54-.08h-1.7v1.82ZM107.26,47.24c-.25.62-.39.9-.81,1.6q-.36-.38-1.17-.94c.12-.17.17-.24.24-.34-.2-.03-.44-.04-.71-.04h-.38c.34.79.71,1.39,1.36,2.28v-.82c.45.06.87.09,1.56.09h1.53v-1.82h-1.63Z"/>
        <path d="M119.85,50.09v7.02h-4.78v-1.63h3.01v-5.38h1.77Z"/>
        <path d="M133.98,52.38c.04.07.06.13.06.21,0,.11-.02.12-.15.45-.3.69-.66,1.77-.84,2.58-.04.17-.09.25-.15.29-.08.03-.59.1-.75.1h-.06c-.08,0-.18-.01-.3-.01-.2,0-.24-.04-.3-.23-.29-.97-.51-2.98-.51-4.5,0-1.65.1-2.67.52-4.92.15-.81.22-1.26.29-1.75.63.12,1.17.27,1.62.48.25.1.33.18.33.33,0,.1-.02.15-.18.39-.5.79-1.05,3.98-1.05,6.12,0,.34.02.81.06,1.56.42-.94.57-1.23.92-1.96.13.32.22.46.49.87ZM137.23,53.45c.48.25,1.05.34,2.06.34s1.53-.08,2.46-.34c.09-.03.16-.04.21-.04.1,0,.18.06.19.21.08.51.13,1.11.13,1.41,0,.15-.04.2-.25.26-.81.21-1.63.31-2.64.31-1.38,0-2.23-.16-2.94-.58-.66-.41-1.35-1.23-1.35-1.64,0-.21.32-.5,1.12-.99.27.54.53.81,1,1.06ZM136.18,45.8c.33.08,1.29.14,2.03.14.99,0,1.98-.08,2.91-.24q.08-.01.14-.01c.1,0,.15.04.18.16.03.15.08.81.08,1.22,0,.22-.04.3-.21.33-.62.12-1.63.19-2.71.19-1.29,0-2.45-.07-2.59-.16-.08-.04-.11-.15-.11-.42,0-.41.04-1.01.08-1.12.01-.06.06-.09.15-.09.02,0,.04,0,.08.01Z"/>
        <path d="M147.33,46.77c2.49-.71,3.78-.93,5.19-.93,1.51,0,2.7.41,3.5,1.19.66.68,1.02,1.61,1.02,2.7,0,1.92-1.03,3.54-2.83,4.47-.96.48-1.93.81-3.27,1.06-.58.12-.88.17-1.11.17-.18,0-.27-.06-.36-.23-.34-.69-.48-.9-.93-1.36,2.23-.27,3.45-.57,4.62-1.16,1.28-.63,1.98-1.66,1.98-2.92,0-1.41-.96-2.33-2.43-2.33-1.78,0-3.76.51-6.04,1.56-.41.18-.62.29-.77.38-.27.15-.34.18-.43.18-.29,0-.79-.91-1.14-2.07.69-.09,1.38-.25,3.01-.71Z"/>
        <path d="M159.78,46.65c0-.44-.02-1.02-.04-1.35.69.07,1.2.18,1.6.33.36.13.48.22.48.39q0,.09-.06.24c-.2.51-.25,1.08-.25,2.44,0,1.92.12,3.12.42,4.04.22.71.57,1.11.97,1.11.62,0,1.12-.72,1.68-2.38.28.77.39.99.81,1.53.08.1.12.21.12.32,0,.24-.22.75-.53,1.18-.58.85-1.33,1.32-2.13,1.32-1.15,0-2.02-.93-2.56-2.77-.34-1.2-.51-2.71-.51-4.81v-1.58ZM168.7,46.89c.09,0,.17.04.29.15.75.72,1.53,1.92,2.03,3.09.33.79.64,1.86.64,2.17,0,.15-.08.23-.39.39-.34.18-1.05.42-1.23.42-.13,0-.19-.08-.24-.34-.2-1.16-.46-2-.93-2.97-.42-.87-.45-.92-1.47-2.18.63-.46,1.12-.73,1.3-.73Z"/>
        <path d="M175.87,47.6c-.39.09-.53.13-1.07.33-.19.07-.3.1-.39.1-.33,0-.63-.61-.9-1.91.96-.04,1.31-.09,2.97-.34,1.8-.27,4.08-.62,5.28-.77,1.35-.18,2.43-.36,3-.48.1-.03.15-.03.22-.03.2,0,.27.09.41.46.12.31.21.76.21.97,0,.18-.06.24-.27.24-.32,0-.6.03-.89.08-2.53.42-4.56,2.64-4.56,4.98,0,1.75,1.38,2.91,3.72,3.12.21.01.29.09.29.27,0,.38-.15,1.09-.29,1.42-.08.17-.19.24-.39.24s-.65-.09-1.11-.22c-2.55-.75-3.88-2.37-3.88-4.67,0-1.25.41-2.4,1.19-3.39.42-.54.78-.84,1.63-1.43-1.96.33-4.04.72-5.17,1.01Z"/>
        <path d="M189.66,52.77c-.75,0-1.31.03-1.75.09v-1.59c.51.06,1.08.09,1.74.09h3.93v-.1c0-.29-.01-.53-.04-.78h.63c.62-.32,1.08-.65,1.7-1.17h-3.96c-.6,0-1.04.01-1.46.06v-1.42c.42.04.86.06,1.47.06h4.75c.56,0,.86-.01,1.1-.06l.79.87q-.21.18-.53.44c-1.02.87-1.75,1.42-2.86,2.1h0s3.73.01,3.73.01c.69,0,1.35-.03,1.77-.09v1.59c-.4-.06-1.02-.09-1.78-.09h-3.72v2.52c0,.74-.15,1.05-.56,1.2-.36.13-.81.18-1.67.18-.18,0-.64-.01-1.42-.04-.15-.78-.22-1.02-.48-1.53.71.09,1.35.13,1.78.13.65,0,.75-.04.75-.33v-2.13h-3.91ZM190.41,45.66c-.35-.64-.53-.93-1.08-1.62l1.44-.44c.53.63.81,1.08,1.32,2.05h1.51c-.25-.73-.46-1.17-.87-1.81l1.5-.42c.58,1.09.67,1.3.99,2.23h1.21c.44-.55.93-1.48,1.18-2.16l1.56.44c-.33.6-.76,1.29-1.09,1.72h.66c.99,0,1.25-.01,1.77-.06-.04.38-.06.66-.06,1.2v1.33c0,.39.03.75.08,1.1h-1.58v-2.23h-9.37v2.23h-1.58c.06-.33.08-.66.08-1.11v-1.32c0-.51-.01-.86-.06-1.2.66.06.74.06,1.71.06h.68Z"/>
        <path d="M209.23,44.46c.18.12.25.21.25.31s-.01.12-.24.38c-.08.09-.3.42-.54.83q-.75,1.25-1.16,1.96c-.42.71-.69,1.18-.84,1.41q-.04.08-.25.45c-.2.34-.32.52-.53.81.97-.85,1.5-1.08,2.49-1.08.66,0,1.25.29,1.62.78.31.42.4.81.54,2.28.07.88.15,1.28.25,1.5.1.21.31.33.58.33,1.03,0,2.26-1.24,2.86-2.88.15.63.27.93.58,1.48.11.18.14.3.14.45,0,.17-.08.38-.26.66-.78,1.26-2.05,2.01-3.42,2.01-.86,0-1.58-.3-1.95-.79-.3-.42-.44-.97-.56-2.44-.07-.96-.15-1.29-.36-1.53-.17-.18-.41-.27-.74-.27-.99,0-2.29,1.33-3.06,3.11-.22.51-.38.97-.54,1.54-.06.22-.13.31-.24.31-.31,0-1.04-.3-1.42-.58-.1-.09-.15-.15-.15-.24,0-.08.03-.15.22-.57.12-.27.17-.35.27-.62q1.11-2.6,4.19-8.82c.34-.69.51-1.12.61-1.57.78.29,1.14.46,1.62.79Z"/>
        <path d="M219.26,47.6c-.39.09-.53.13-1.07.33-.19.07-.3.1-.39.1-.33,0-.63-.61-.9-1.91.96-.04,1.31-.09,2.97-.34,1.8-.27,4.08-.62,5.28-.77,1.35-.18,2.43-.36,3-.48.1-.03.15-.03.22-.03.2,0,.27.09.41.46.12.31.21.76.21.97,0,.18-.06.24-.27.24-.32,0-.6.03-.89.08-2.53.42-4.56,2.64-4.56,4.98,0,1.75,1.38,2.91,3.72,3.12.21.01.29.09.29.27,0,.38-.15,1.09-.29,1.42-.08.17-.19.24-.39.24s-.65-.09-1.11-.22c-2.55-.75-3.88-2.37-3.88-4.67,0-1.25.41-2.4,1.19-3.39.42-.54.78-.84,1.63-1.43-1.96.33-4.04.72-5.17,1.01ZM226.93,47.99c.21,0,1.48,1.42,1.48,1.65,0,.08-.09.17-.36.41-.29.24-.3.24-.42.28q-.08.03-.11.03c-.06,0-.08-.02-.34-.44-.24-.38-.5-.71-.97-1.2-.03-.03-.08-.11-.08-.12.03-.08.04-.12.06-.12.04-.06.3-.27.36-.31.15-.08.24-.14.25-.15.01-.03.04-.03.04-.03h.08ZM229.5,49.02c-.22.17-.36.25-.43.25-.06,0-.09-.03-.17-.15-.45-.67-.67-.96-1.16-1.42-.03-.05-.06-.09-.06-.12,0-.07.09-.16.3-.31s.39-.24.46-.24c.11,0,.29.13.6.45.44.45.84,1,.84,1.14,0,.09-.11.2-.39.41Z"/>
        <path d="M232.08,46.65c0-.44-.02-1.02-.04-1.35.69.07,1.2.18,1.6.33.36.13.48.22.48.39q0,.09-.06.24c-.2.51-.25,1.08-.25,2.44,0,1.92.12,3.12.42,4.04.22.71.57,1.11.97,1.11.62,0,1.12-.72,1.68-2.38.28.77.39.99.81,1.53.08.1.12.21.12.32,0,.24-.22.75-.53,1.18-.58.85-1.33,1.32-2.13,1.32-1.15,0-2.02-.93-2.56-2.77-.34-1.2-.51-2.71-.51-4.81v-1.58ZM241,46.89c.09,0,.17.04.29.15.75.72,1.53,1.92,2.03,3.09.33.79.64,1.86.64,2.17,0,.15-.08.23-.39.39-.34.18-1.05.42-1.23.42-.13,0-.19-.08-.24-.34-.2-1.16-.46-2-.93-2.97-.42-.87-.45-.92-1.47-2.18.63-.46,1.12-.73,1.3-.73Z"/>
        <path d="M19.96,73.26c-1.29.22-2.62.38-3.43.38-.24,0-.34-.05-.38-.18-.06-.22-.12-.67-.15-1.23,1.22,0,2.15-.08,3.48-.29q-.08-.22-.27-.78c-.13-.36-.25-.66-.42-.97.65-.13,1.23-.21,1.77-.21.13,0,.21.09.21.24v.21c0,.27.06.63.21,1.21,1.12-.25,2.08-.57,2.85-.9.12-.04.15-.06.2-.06.07,0,.12.08.25.39.13.35.27.74.27.81s-.03.1-.12.15c-.88.38-1.29.51-3.03.94.21.52.27.66.52,1.2.83-.22,1.23-.36,1.53-.51l1.41-.71s.04-.03.04-.03c.01,0,.04.01.06.01.06,0,.12.09.25.38.18.36.33.77.33.86q0,.1-.31.27c-.83.45-1.47.71-2.55,1,.6.89,1.46,1.84,1.96,2.21s.52.39.52.54c0,.13-.15.45-.43.95-.25.43-.38.55-.54.55-.09,0-.11,0-.33-.17-.76-.58-2.31-.99-3.79-.99-1.29,0-2.1.45-2.1,1.2,0,.46.36.84,1,1.08.58.21,1.88.34,3.27.34.33,0,.62-.01,1.2-.04-.27.39-.41.66-.58,1.29-.09.31-.2.38-.66.38-1.6,0-3.03-.18-3.99-.53-1.28-.45-1.95-1.29-1.95-2.41,0-1.61,1.32-2.58,3.51-2.58,1.35,0,2.21.15,3.15.57-.84-.79-1.29-1.34-1.72-2.04-.72.15-1.08.21-1.56.29-.86.12-2.42.24-3.04.24-.48,0-.5-.02-.63-1.42.33.01.58.01.73.01.96,0,2.79-.2,3.79-.4-.18-.38-.38-.81-.54-1.25Z"/>
        <path d="M34.47,75.32q-.03-.74-.04-1.67c-.13.02-.27.02-.33.02-.99,0-2.26-.11-2.79-.24-.15-.04-.18-.08-.18-.22,0-.33.04-.74.15-1.32.84.16,1.88.27,2.77.27.08,0,.21,0,.38-.01v-.99c0-.52-.01-.76-.04-1.29.75.04,1.26.09,1.62.18.3.06.39.13.39.3,0,.07-.01.1-.12.34-.1.25-.12.32-.18,1.35.9-.11,1.62-.26,2.33-.47.04-.01.06-.01.08-.01.1,0,.1.01.27.49.11.32.21.71.21.83,0,.1-.04.16-.19.21-.5.17-1.79.39-2.73.5,0,1.06,0,1.11.01,1.63,1.05-.14,1.62-.29,2.81-.72.07-.03.1-.04.15-.04.09,0,.12.04.27.41.15.38.29.79.29.94,0,.08-.06.13-.17.18-.83.3-2.33.66-3.27.76.03.57.06.88.15,2.05.84.26,1.18.39,1.83.74.72.36,1.11.61,1.75,1.12.12.09.17.17.17.29,0,.1-.14.36-.42.81-.33.5-.5.69-.6.69-.04,0-.09-.01-.13-.06-.9-.86-1.49-1.28-2.49-1.77-.06.72-.22,1.12-.63,1.5-.51.5-1.36.76-2.43.76-1.84,0-2.98-.81-2.98-2.12,0-.57.24-1.12.64-1.5.58-.54,1.47-.82,2.59-.82.36,0,.67.03,1.05.07-.07-.97-.1-1.32-.12-1.63-.34.02-.54.02-.72.02-1.04,0-2.29-.17-3-.38-.15-.04-.21-.12-.21-.24,0-.22.09-.71.23-1.32.93.23,2.11.36,3.22.36h.43ZM33.43,79.89c-.96,0-1.49.29-1.49.79,0,.45.43.69,1.28.69.97,0,1.42-.34,1.42-1.09v-.25c-.39-.11-.69-.13-1.21-.13Z"/>
        <path d="M48.06,70.4c.38.1.48.18.48.34,0,.11-.01.15-.09.36-.17.43-.29,1.2-.34,2.25-.12,2.42-.18,4.29-.18,5.77,0,.48.04.84.12,1.08.17.5.69.75,1.53.75,1.35,0,2.62-.55,3.79-1.65.54-.51.87-.91,1.42-1.74.09.48.21.79.54,1.47.04.12.08.21.08.35,0,.27-.29.63-1.04,1.3-1.49,1.33-3.13,2.02-4.86,2.02-1.14,0-1.98-.28-2.52-.83-.57-.6-.79-1.38-.79-2.86,0-1.17.01-2.07.13-5.57.02-.52.03-.84.03-.97,0-1.28-.01-1.65-.11-2.29.77.03,1.35.09,1.8.21Z"/>
        <path d="M64.8,79.11c1.08.36,1.54.55,2.31.99.99.57,1.16.72,1.16,1.01,0,.13-.2.45-.51.85-.22.29-.32.36-.43.36q-.09,0-.59-.45c-.54-.5-1.12-.85-1.89-1.16,0,1.23-.93,1.91-2.64,1.91-1.53,0-2.45-.67-2.45-1.79s1.05-1.98,2.52-1.98c.27,0,.48.01,1.04.06-.11-1.8-.15-3.04-.17-4.51,0-.88-.03-1.15-.14-1.63.63.02,1.31.07,1.61.13.21.06.27.12.27.27,0,.08,0,.09-.09.27-.1.25-.17.85-.18,1.86.94-.04,1.46-.13,2.61-.45.03-.01.06-.01.08-.01.04,0,.09.01.11.04.1.13.3.99.3,1.32,0,.14-.04.17-.58.29-.9.18-1.61.27-2.49.29.02.74.04,1.16.17,2.34ZM62.2,80.13c-.72,0-1.09.21-1.09.63,0,.36.33.53,1,.53s1.02-.17,1.15-.54c.05-.12.06-.19.06-.46-.32-.1-.62-.15-1.12-.15Z"/>
        <path d="M76.78,73.83c.97-.25,1.62-.34,2.33-.34,2.13,0,3.36,1.26,3.36,3.42,0,1.88-.81,3.39-2.45,4.59-.87.65-2.19,1.29-2.62,1.29-.2,0-.24-.04-.56-.5-.22-.34-.45-.55-.82-.83,1.72-.58,2.44-.96,3.22-1.63.9-.79,1.35-1.75,1.35-2.89,0-1.21-.57-1.91-1.58-1.91-.81,0-1.86.32-3.22.98-.2.09-.3.16-.55.34-.06.03-.12.06-.18.06-.29,0-.77-.84-1.1-1.96.56-.04.84-.12,2.82-.62ZM77.79,70.17c.54.17,1.35.32,2.08.41.3.03.41.04,1.17.07.22,0,.29.06.29.22,0,.5-.11,1.31-.2,1.46-.03.09-.1.12-.21.12-.34,0-1.56-.17-2.26-.32-1.19-.24-2.22-.54-2.43-.71-.05-.04-.08-.1-.08-.17,0-.12.31-.93.46-1.21.08-.12.12-.15.21-.15q.08,0,.96.27Z"/>
        <path d="M94.26,81.46c0,.66-.53,1.19-1.18,1.19s-1.19-.53-1.19-1.19.53-1.18,1.19-1.18,1.18.52,1.18,1.18ZM93.73,79.25h-1.33l-.41-8.98h2.16l-.42,8.98Z"/>
      </g>
      <path class="cls-7" d="M329.77,118.23H90.4c-4.68,0-8.47,3.79-8.47,8.47v61.18s-9.69,9.69-9.69,9.69h9.69v.5c0,4.68,3.79,8.47,8.47,8.47h239.38c4.68,0,8.47-3.79,8.47-8.47v-71.37c0-4.68-3.79-8.47-8.47-8.47Z"/>
      <g>
        <path d="M96.05,133.91c0-.44-.02-1.02-.04-1.35.69.07,1.2.18,1.6.33.36.14.48.23.48.39q0,.09-.06.24c-.2.51-.25,1.08-.25,2.44,0,1.92.12,3.12.42,4.04.22.71.57,1.11.97,1.11.62,0,1.12-.72,1.68-2.38.28.77.39.99.81,1.53.08.1.12.21.12.31,0,.24-.22.75-.53,1.19-.58.85-1.33,1.32-2.13,1.32-1.15,0-2.02-.93-2.56-2.77-.34-1.2-.51-2.71-.51-4.81v-1.58ZM104.97,134.15c.09,0,.17.04.29.15.75.72,1.53,1.92,2.03,3.09.33.79.64,1.86.64,2.17,0,.15-.08.23-.39.39-.34.18-1.05.42-1.23.42-.13,0-.19-.08-.24-.34-.2-1.16-.46-2-.93-2.97-.42-.87-.45-.92-1.47-2.17.63-.46,1.12-.73,1.3-.73Z"/>
        <path d="M116.62,136.03c.03,1.12.06,1.71.21,3.21,1.26.41,1.86.66,2.75,1.14,1.18.67,1.79,1.12,1.79,1.33,0,.18-.2.52-.54,1.02-.22.33-.39.48-.51.48-.08,0-.14-.03-.24-.14-1.07-1.02-1.92-1.57-3.18-2.08-.03.91-.2,1.39-.63,1.84-.53.52-1.44.81-2.62.81-1.96,0-3.17-.87-3.17-2.29,0-1.51,1.32-2.47,3.38-2.47.5,0,.93.03,1.3.08-.15-2.46-.2-3.65-.21-5.85-.01-.87-.04-1.39-.13-2.1.69.02,1.38.09,1.79.2.24.08.33.15.33.31,0,.08-.01.12-.06.24-.17.39-.22.96-.25,2.62q.12,0,.58-.03c.72-.04,1.74-.22,2.88-.54.04-.01.08-.01.12-.01.09,0,.12.03.18.18.15.36.32,1.1.32,1.35,0,.12-.06.17-.2.21-1.16.27-2.78.5-3.66.5h-.21ZM113.68,140.34c-1.02,0-1.63.34-1.63.92,0,.53.51.79,1.46.79,1.15,0,1.66-.41,1.66-1.35v-.12c-.49-.18-.92-.24-1.48-.24Z"/>
        <path d="M124.96,133.91c0-.44-.02-1.02-.04-1.35.69.07,1.2.18,1.6.33.36.14.48.23.48.39q0,.09-.06.24c-.2.51-.25,1.08-.25,2.44,0,1.92.12,3.12.42,4.04.22.71.57,1.11.97,1.11.62,0,1.12-.72,1.68-2.38.28.77.39.99.81,1.53.08.1.12.21.12.31,0,.24-.22.75-.53,1.19-.58.85-1.33,1.32-2.13,1.32-1.15,0-2.02-.93-2.56-2.77-.34-1.2-.51-2.71-.51-4.81v-1.58ZM133.89,134.15c.09,0,.17.04.29.15.75.72,1.53,1.92,2.03,3.09.33.79.64,1.86.64,2.17,0,.15-.08.23-.39.39-.34.18-1.05.42-1.23.42-.13,0-.19-.08-.24-.34-.2-1.16-.46-2-.93-2.97-.42-.87-.45-.92-1.47-2.17.63-.46,1.12-.73,1.3-.73Z"/>
        <path d="M145.54,136.03c.03,1.12.06,1.71.21,3.21,1.26.41,1.86.66,2.75,1.14,1.18.67,1.79,1.12,1.79,1.33,0,.18-.2.52-.54,1.02-.22.33-.39.48-.51.48-.08,0-.14-.03-.24-.14-1.07-1.02-1.92-1.57-3.18-2.08-.03.91-.2,1.39-.63,1.84-.53.52-1.44.81-2.62.81-1.96,0-3.17-.87-3.17-2.29,0-1.51,1.32-2.47,3.38-2.47.5,0,.93.03,1.3.08-.15-2.46-.2-3.65-.21-5.85-.01-.87-.04-1.39-.13-2.1.69.02,1.38.09,1.79.2.24.08.33.15.33.31,0,.08-.01.12-.06.24-.17.39-.22.96-.25,2.62q.12,0,.58-.03c.72-.04,1.74-.22,2.88-.54.04-.01.08-.01.12-.01.09,0,.12.03.18.18.15.36.32,1.1.32,1.35,0,.12-.06.17-.2.21-1.16.27-2.78.5-3.66.5h-.21ZM142.6,140.34c-1.02,0-1.63.34-1.63.92,0,.53.51.79,1.46.79,1.15,0,1.66-.41,1.66-1.35v-.12c-.49-.18-.92-.24-1.48-.24Z"/>
        <path d="M161.62,137.36v-7.04h4.79v1.63h-3v5.4h-1.79Z"/>
        <path d="M176.8,136.31h2.13c.68,0,1.1-.03,1.54-.09v1.63c-.48-.04-.93-.07-1.56-.07h-1.62c.86,1.5,2.1,2.74,3.58,3.58-.48.48-.69.78-.99,1.5-.61-.43-1.05-.85-1.62-1.5-.74-.86-1.05-1.32-1.53-2.22.03.54.04,1,.04,1.44v1.81c0,.67.03,1.2.09,1.67h-1.67c.06-.46.09-1,.09-1.68v-1.71c0-.41.02-.88.04-1.49-.91,1.65-1.93,2.76-3.39,3.74-.38-.71-.58-1-.9-1.37,1.54-.88,2.8-2.17,3.67-3.78h-.95c-.64,0-1.11.03-1.58.09v-.6c-.25.36-.43.69-.61,1.22-.38-.59-.6-1.05-.89-1.8.03.47.06,1.28.06,1.91v3.69c0,.77.03,1.32.09,1.77h-1.67c.06-.46.09-1.02.09-1.77v-3.1c0-.57.02-.93.11-1.86-.44,1.46-.87,2.43-1.52,3.41-.18-.67-.37-1.11-.67-1.6.72-.92,1.47-2.61,1.92-4.35h-.57c-.44,0-.69.02-.96.06v-1.53c.24.04.51.06.96.06h.72v-1.16c0-.76-.01-1.14-.08-1.5h1.65c-.06.39-.08.79-.08,1.5v1.16h.43c.36,0,.54-.02.78-.06v1.42c.57-1.02,1.05-2.52,1.09-3.49l1.46.38c-.06.17-.1.34-.21.79-.08.27-.1.4-.18.69h1.15v-.99c0-.61-.03-.99-.09-1.36h1.68c-.06.36-.09.76-.09,1.36v.99h1.7c.72,0,1.14-.03,1.54-.09v1.58c-.42-.04-.9-.08-1.54-.08h-1.7v1.81ZM173.67,134.5c-.25.62-.39.9-.81,1.6q-.36-.38-1.17-.94c.12-.17.17-.24.24-.35-.2-.03-.44-.04-.71-.04h-.38c.34.79.71,1.4,1.36,2.28v-.83c.45.06.87.09,1.56.09h1.53v-1.81h-1.63Z"/>
        <path d="M186.25,137.34v7.02h-4.78v-1.63h3.01v-5.38h1.77Z"/>
        <path d="M200.38,139.64c.04.08.06.13.06.21,0,.11-.02.12-.15.45-.3.69-.66,1.77-.84,2.58-.04.17-.09.25-.15.29-.08.03-.59.1-.75.1h-.06c-.08,0-.18-.01-.3-.01-.2,0-.24-.04-.3-.23-.29-.97-.51-2.98-.51-4.5,0-1.65.1-2.67.52-4.92.15-.81.22-1.26.29-1.75.63.12,1.17.27,1.62.48.25.11.33.18.33.33,0,.11-.02.15-.18.39-.5.79-1.05,3.98-1.05,6.12,0,.34.02.81.06,1.56.42-.94.57-1.23.92-1.96.13.32.22.46.49.87ZM203.64,140.71c.48.25,1.05.34,2.06.34s1.53-.08,2.46-.34c.09-.03.16-.04.21-.04.1,0,.18.06.19.21.08.51.13,1.11.13,1.41,0,.15-.04.2-.25.26-.81.21-1.63.31-2.64.31-1.38,0-2.23-.17-2.94-.58-.66-.41-1.35-1.23-1.35-1.63,0-.21.32-.5,1.12-.99.27.54.53.81,1,1.07ZM202.59,133.05c.33.08,1.29.14,2.03.14.99,0,1.98-.08,2.91-.24q.08-.01.14-.01c.1,0,.15.04.18.16.03.15.08.81.08,1.22,0,.22-.04.3-.21.33-.62.12-1.63.19-2.71.19-1.29,0-2.45-.08-2.59-.17-.08-.04-.11-.15-.11-.42,0-.41.04-1,.08-1.12.01-.06.06-.09.15-.09.02,0,.04,0,.08.01Z"/>
        <path d="M213.73,134.03c2.49-.71,3.78-.93,5.19-.93,1.51,0,2.7.41,3.5,1.19.66.67,1.02,1.6,1.02,2.7,0,1.92-1.03,3.54-2.83,4.47-.96.48-1.93.81-3.27,1.06-.58.12-.88.17-1.11.17-.18,0-.27-.06-.36-.22-.34-.69-.48-.9-.93-1.37,2.23-.27,3.45-.57,4.62-1.16,1.28-.63,1.98-1.67,1.98-2.92,0-1.41-.96-2.32-2.43-2.32-1.78,0-3.76.51-6.04,1.56-.41.18-.62.29-.77.38-.27.15-.34.18-.43.18-.29,0-.79-.92-1.14-2.07.69-.09,1.38-.25,3.01-.71Z"/>
        <path d="M226.18,133.91c0-.44-.02-1.02-.04-1.35.69.07,1.2.18,1.6.33.36.14.48.23.48.39q0,.09-.06.24c-.2.51-.25,1.08-.25,2.44,0,1.92.12,3.12.42,4.04.22.71.57,1.11.97,1.11.62,0,1.12-.72,1.68-2.38.28.77.39.99.81,1.53.08.1.12.21.12.31,0,.24-.22.75-.53,1.19-.58.85-1.33,1.32-2.13,1.32-1.15,0-2.02-.93-2.56-2.77-.34-1.2-.51-2.71-.51-4.81v-1.58ZM235.11,134.15c.09,0,.17.04.29.15.75.72,1.53,1.92,2.03,3.09.33.79.64,1.86.64,2.17,0,.15-.08.23-.39.39-.34.18-1.05.42-1.23.42-.13,0-.19-.08-.24-.34-.2-1.16-.46-2-.93-2.97-.42-.87-.45-.92-1.47-2.17.63-.46,1.12-.73,1.3-.73Z"/>
        <path d="M242.28,134.86c-.39.09-.53.13-1.07.33-.19.08-.3.11-.39.11-.33,0-.63-.62-.9-1.91.96-.04,1.31-.09,2.97-.34,1.8-.27,4.08-.62,5.28-.76,1.35-.18,2.43-.36,3-.48.1-.03.15-.03.22-.03.2,0,.27.09.41.46.12.31.21.76.21.97,0,.18-.06.24-.27.24-.32,0-.6.03-.89.08-2.53.42-4.56,2.64-4.56,4.98,0,1.75,1.38,2.91,3.72,3.12.21.01.29.09.29.27,0,.38-.15,1.09-.29,1.42-.08.17-.19.24-.39.24s-.65-.09-1.11-.22c-2.55-.75-3.88-2.37-3.88-4.67,0-1.25.41-2.4,1.19-3.39.42-.54.78-.84,1.63-1.43-1.96.33-4.04.72-5.17,1.01Z"/>
        <path d="M262.78,133.4v-.86c0-1.09-.02-1.3-.08-1.75h1.62c-.06.34-.09.66-.09,1.23,0,.4,0,.75-.03,1.38h1.44c.65,0,.99-.02,1.4-.06-.03.51-.04.86-.08,1.75-.08,2.83-.27,4.67-.54,5.47.41.14.69.2,1.11.26-.08,1.48-.33,2.17-.93,2.52-.55.33-1.35.39-4.71.39s-3.64-.18-3.64-1.46v-3.61h-.67c-.11,1.32-.18,1.74-.39,2.38-.27.83-.71,1.54-1.29,2.14-.24.25-.46.45-.95.84-.27-.48-.6-.88-1.05-1.27,1.16-.81,1.59-1.33,1.89-2.26.2-.58.25-.99.29-1.83h-.12c-.42,0-.78.01-1.16.04.03-.3.05-.58.05-1.05v-2.16c-.17.15-.21.2-.39.36-.13-.51-.36-1-.66-1.46.71-.56,1.1-.96,1.61-1.7.52-.76.87-1.47,1.02-2.12l1.67.23q-.04.06-.42.83h1.18c.5,0,.78-.02,1.12-.04l.62.66c-.1.15-.24.36-.38.62-.3.57-.67,1.16-.96,1.56h1c.41,0,.71-.01,1-.03v-1.08c.36.06.6.08,1.2.08h.32ZM257.7,134.43c.39-.54.66-1,.85-1.47h-1.6c-.32.51-.58.87-1.08,1.47h1.83ZM256.15,137.31h1.32v-1.54h-1.32v1.54ZM258.7,137.31h1.37v-1.54h-1.37v1.54ZM264.15,134.81c-.07,1.17-.3,2.39-.61,3.38-.48,1.5-1.1,2.49-2.36,3.79-.21-.39-.52-.72-1.06-1.15.71-.63,1.03-1.04,1.47-1.8.63-1.05.97-2.32,1.12-4.21h-.29c-.53,0-.79.02-1.05.05-.01.21-.01.38-.01.6v2.23c0,.42.01.72.04,1.02-.41-.04-.6-.04-1.14-.04h-.54v3.06c0,.54.23.6,2.49.6,3.55,0,3.63-.03,3.75-1.16-.33.2-.66.27-1.3.27-.29,0-.72-.01-1.19-.06-.06-.78-.09-.97-.29-1.49.66.12,1.1.17,1.4.17.42,0,.57-.18.66-.83.18-1.3.24-2.29.28-4.42h-1.38Z"/>
        <path d="M271.99,137.57c.5,0,.78-.02,1-.04q-.01.34-.09,1.95c-.04,1.17-.23,2.38-.45,3.08-.18.58-.48.95-.95,1.12-.25.09-.61.13-1.15.13-.42,0-.83-.01-1.25-.04-.06-.66-.12-.95-.3-1.59.52.09,1.06.13,1.42.13.52,0,.71-.08.81-.36.24-.62.36-1.56.39-3.02h-1.67c-.41,0-.57,0-.99.03.24-1.21.41-2.96.42-4.58.34.04.5.04,1.21.04h1.09v-1.75h-1.42c-.57,0-.93.02-1.26.06v-1.53c.32.06.71.08,1.35.08h1.75c.48,0,.77-.01,1.11-.04-.03.42-.04.66-.04,1.09v2.16c0,.43.01.83.04,1.33-.27-.03-.57-.04-1.02-.04h-1.37q-.11,1.23-.18,1.79h1.51ZM276.63,134.78c-1.92.1-2.96.18-3.13.19l-.15-1.5c.21.02.48.03.74.03h.42c.63-1.04,1.02-1.86,1.33-2.79l1.65.32q-.17.3-.52.99c-.27.52-.48.87-.86,1.44q1.75-.09,3.06-.18c-.33-.44-.54-.69-1.12-1.33l1.18-.65c1,1.04,1.79,2.03,2.62,3.29l-1.25.87c-.29-.5-.39-.67-.58-.96-.73.08-1.17.12-1.96.18v1.21h1.95c.52,0,.79-.01,1.15-.06-.04.33-.06.58-.06,1.02v2.15c0,.46.01.73.06,1.09-.38-.03-.78-.04-1.2-.04h-1.91v1.71q.79-.09,1.51-.2c-.13-.25-.24-.45-.5-.85l1.25-.5c.87,1.37,1.11,1.84,1.71,3.27l-1.36.55c-.23-.64-.33-.9-.5-1.27-1.68.29-4.23.63-5.96.79-.67.08-.71.08-.96.12l-.25-1.63c.18.01.25.01.43.01.63,0,1.75-.06,3.2-.17v-1.84h-1.72c-.53,0-.86.01-1.23.06.03-.34.04-.72.04-1.14v-2.04c0-.39-.01-.72-.04-1.08.34.03.67.04,1.2.04h1.75v-1.11ZM275.08,137.17v1.6h1.54v-1.6h-1.54ZM278.05,138.77h1.65v-1.6h-1.65v1.6Z"/>
        <path d="M285.66,134.86c-.39.09-.53.13-1.07.33-.19.08-.3.11-.39.11-.33,0-.63-.62-.9-1.91.96-.04,1.31-.09,2.97-.34,1.8-.27,4.08-.62,5.28-.76,1.35-.18,2.43-.36,3-.48.1-.03.15-.03.22-.03.2,0,.27.09.41.46.12.31.21.76.21.97,0,.18-.06.24-.27.24-.32,0-.6.03-.89.08-2.53.42-4.56,2.64-4.56,4.98,0,1.75,1.38,2.91,3.72,3.12.21.01.29.09.29.27,0,.38-.15,1.09-.29,1.42-.08.17-.19.24-.39.24s-.65-.09-1.11-.22c-2.55-.75-3.88-2.37-3.88-4.67,0-1.25.41-2.4,1.19-3.39.42-.54.78-.84,1.63-1.43-1.96.33-4.04.72-5.17,1.01ZM293.34,135.25c.21,0,1.48,1.42,1.48,1.65,0,.08-.09.17-.36.41-.29.24-.3.24-.42.29q-.08.03-.11.03c-.06,0-.08-.02-.34-.44-.24-.38-.5-.71-.97-1.2-.03-.03-.08-.1-.08-.12.03-.08.04-.12.06-.12.04-.06.3-.27.36-.32.15-.08.24-.13.25-.15.01-.03.04-.03.04-.03h.08ZM295.9,136.28c-.22.17-.36.25-.43.25-.06,0-.09-.03-.17-.15-.45-.67-.67-.96-1.16-1.42-.03-.04-.06-.09-.06-.12,0-.08.09-.17.3-.31.21-.15.39-.24.46-.24.11,0,.29.13.6.45.44.45.84,1,.84,1.14,0,.09-.11.2-.39.41Z"/>
        <path d="M303.27,134.27c-1.29.22-2.62.38-3.43.38-.24,0-.34-.05-.38-.18-.06-.22-.12-.67-.15-1.23,1.22,0,2.15-.08,3.48-.29q-.08-.22-.27-.78c-.13-.36-.25-.66-.42-.97.65-.13,1.23-.21,1.77-.21.13,0,.21.09.21.24v.21c0,.27.06.63.21,1.21,1.12-.25,2.08-.57,2.85-.9.12-.04.15-.06.2-.06.07,0,.12.08.25.39.13.34.27.74.27.81s-.03.11-.12.15c-.88.38-1.29.51-3.03.95.21.52.27.66.52,1.2.83-.22,1.23-.36,1.53-.51l1.41-.71s.04-.03.04-.03c.01,0,.04.01.06.01.06,0,.12.09.25.38.18.36.33.76.33.85q0,.11-.31.27c-.83.45-1.47.71-2.55,1,.6.88,1.46,1.84,1.96,2.21.51.36.52.39.52.54,0,.13-.15.45-.43.94-.25.44-.38.56-.54.56-.09,0-.11,0-.33-.17-.76-.58-2.31-.99-3.79-.99-1.29,0-2.1.45-2.1,1.2,0,.46.36.84,1,1.08.58.21,1.88.34,3.27.34.33,0,.62-.01,1.2-.04-.27.39-.41.66-.58,1.29-.09.31-.2.38-.66.38-1.6,0-3.03-.18-3.99-.53-1.28-.45-1.95-1.29-1.95-2.42,0-1.6,1.32-2.58,3.51-2.58,1.35,0,2.21.15,3.15.57-.84-.79-1.29-1.33-1.72-2.04-.72.15-1.08.21-1.56.29-.86.12-2.42.24-3.04.24-.48,0-.5-.02-.63-1.42.33.01.58.01.73.01.96,0,2.79-.2,3.79-.41-.18-.38-.38-.81-.54-1.24Z"/>
        <path d="M320.1,136.01c2.12,0,3.62,1.44,3.62,3.48,0,1.39-.74,2.65-1.96,3.39-.86.51-1.91.76-3.09.76-1.91,0-3.02-.76-3.02-2.07,0-1.19.99-2.03,2.4-2.03,1.27,0,2.19.64,2.8,1.96.76-.55,1.08-1.14,1.08-1.95,0-1.29-.92-2.13-2.36-2.13s-3.04.74-4.35,2.04c-.24.24-.46.5-.73.84-.11.15-.18.21-.27.21-.27,0-1.33-1.05-1.33-1.32,0-.13.06-.21.39-.45.34-.27.84-.71,1.47-1.3,1.46-1.38,2.52-2.54,4.09-4.46-1.88.24-3.13.45-3.6.62-.08.01-.12.03-.17.03-.12,0-.2-.07-.29-.3-.18-.45-.27-.94-.32-1.6.41.06.69.08,1.02.08.72,0,1.93-.11,3.51-.29.55-.06.73-.11,1.16-.27.13-.06.21-.08.3-.08.21,0,.42.18.81.78.29.39.38.58.38.71,0,.2-.04.25-.38.46-.27.17-.43.3-.78.63-.75.72-.76.72-1.69,1.67-.66.67-.74.75-1.33,1.35.97-.54,1.74-.77,2.64-.77ZM318.66,141.2c-.23-.15-.48-.23-.77-.23-.46,0-.76.23-.76.58,0,.44.46.71,1.18.71.33,0,.62-.03.99-.13-.18-.5-.33-.72-.64-.93Z"/>
        <path d="M102.12,157.97c.18.12.25.21.25.32s-.01.12-.24.38c-.08.09-.3.42-.54.83q-.75,1.25-1.16,1.96c-.42.71-.69,1.18-.84,1.41q-.04.07-.25.45c-.2.35-.32.53-.53.81.97-.86,1.5-1.08,2.49-1.08.66,0,1.25.29,1.62.78.31.42.4.81.54,2.28.07.88.15,1.28.25,1.5.1.21.31.33.58.33,1.03,0,2.26-1.25,2.86-2.88.15.63.27.93.58,1.49.11.18.14.3.14.45,0,.17-.08.38-.26.66-.78,1.26-2.05,2.01-3.42,2.01-.85,0-1.57-.3-1.95-.79-.3-.42-.44-.97-.56-2.44-.07-.96-.15-1.29-.36-1.53-.17-.18-.41-.27-.74-.27-.99,0-2.29,1.33-3.06,3.1-.22.51-.38.97-.54,1.54-.06.22-.13.32-.24.32-.31,0-1.04-.3-1.42-.58-.1-.09-.15-.15-.15-.24,0-.08.03-.15.22-.57.12-.27.17-.34.27-.62q1.11-2.59,4.19-8.82c.34-.69.51-1.12.61-1.58.78.29,1.14.47,1.62.79Z"/>
        <path d="M110.53,161.99h-.09c-.08.01-.13.01-.17.01-.13,0-.21-.06-.25-.25-.09-.38-.15-.83-.18-1.41.21.02.38.02.48.02.81,0,1.75-.06,2.55-.17.15-.99.23-1.74.23-2.37v-.34c1.74.24,2.07.33,2.05.6,0,.08-.03.12-.09.25-.18.34-.2.39-.44,1.58.58-.11,1.33-.3,1.64-.41.06-.03.07-.03.12-.03.13,0,.16.06.28.58.06.3.12.72.12.84,0,.1-.04.16-.18.19q-.27.09-2.33.45c-.69,3.06-1.41,5.29-2.56,8-.08.19-.15.27-.24.27-.2,0-.72-.21-1.23-.5-.26-.13-.33-.2-.33-.29,0-.06.04-.17.12-.31,1.14-2.16,1.97-4.46,2.54-6.92-.66.08-1.12.12-2.04.2ZM116.94,167.69c.43.29,1.06.42,1.95.42.97,0,1.81-.09,2.29-.24.12-.03.15-.04.21-.04.13,0,.19.04.24.18.11.31.18.93.18,1.39,0,.2-.06.27-.26.32-.49.1-1.33.17-2.22.17-1.88,0-2.92-.3-3.61-1.02-.25-.27-.46-.6-.58-.97-.09-.22-.15-.48-.15-.57,0-.25.45-.52,1.23-.78.17.63.34.92.72,1.15ZM121.15,163.33c-.3-.04-.93-.08-1.46-.08-1.11,0-1.58.04-2.89.27-.03.02-.08.02-.11.02-.09,0-.13-.03-.17-.12-.04-.11-.1-.84-.1-1.16,0-.19.03-.29.15-.33.06-.03.15-.04.46-.1,1.02-.18,1.88-.25,2.92-.25.87,0,1.32.03,1.43.1.07.06.09.18.09.67,0,.44-.03.83-.06.92-.01.04-.08.08-.15.08-.03,0-.08,0-.12-.01ZM119.5,158.05c.2,0,1.47,1.42,1.47,1.65,0,.06-.1.19-.22.29-.06.04-.15.12-.25.21-.13.12-.18.15-.33.21t-.08.03c-.06,0-.06-.01-.34-.45-.25-.39-.74-.99-.99-1.22-.03-.03-.07-.09-.07-.1.03-.06.04-.09.04-.09.07-.09.33-.3.39-.34.15-.08.24-.14.25-.15.01-.03.03-.03.04-.03h.09ZM122.04,159.09c-.21.15-.36.24-.43.24-.06,0-.09-.03-.17-.15-.33-.54-.65-.93-1.14-1.43-.04-.04-.06-.07-.06-.12,0-.14.57-.56.76-.56.11,0,.29.15.62.5.48.5.83.95.83,1.09,0,.09-.11.2-.41.42Z"/>
        <path d="M126.75,161.59c-1.06.18-1.3.22-1.56.3-.15.04-.27.06-.36.06-.27,0-.4-.48-.46-1.65.87,0,1.35-.04,2.42-.24,0-.48.01-1.03.01-1.23,0-.58-.03-1.09-.09-1.47,1.58.07,2.04.18,2.04.46q0,.08-.13.39t-.2,1.62c.48.38.74.67.72.87,0,.04-.03.08-.09.13-.22.2-.25.22-.52.62q-.06.08-.15.19l-.06.09c0,.22,0,.25-.02.54.45-.51.87-.93,1.28-1.26,1.32-1.08,2.31-1.53,3.39-1.53s1.77.43,2.29,1.33c.45.78.69,1.88.69,3.17,0,.78-.06,1.38-.23,2.5.72.51,1.5,1.3,1.5,1.51,0,.24-.84,1.08-1.09,1.08-.1,0-.12-.02-.32-.32-.12-.17-.28-.36-.61-.72-.21.39-.33.55-.54.75-.55.51-1.3.78-2.19.78-1.56,0-2.56-.79-2.56-2,0-1.28,1.04-2.24,2.4-2.24.78,0,1.35.11,1.86.33.06-.55.08-.83.08-1.3,0-2.37-.45-3.3-1.59-3.3-.81,0-1.89.57-3.03,1.59-.41.38-.72.69-1.37,1.39v.87c0,2,.04,4,.11,4.53v.06c0,.27-.21.34-.93.34-.66,0-.79-.06-.79-.34v-.12c.03-.43.04-.96.04-1.62q0-.99.01-2.17s-.03.04-.06.08c-.33.41-.87,1.14-1.22,1.63-.17.24-.25.32-.36.32-.15,0-.42-.27-.88-.87-.18-.22-.29-.42-.29-.5s.08-.17.45-.5c.27-.25,1.29-1.5,1.81-2.19.27-.38.46-.65.58-.84v-1.16ZM132.49,166.73c-.69,0-1.11.29-1.11.75s.32.69.89.69c.5,0,.9-.15,1.17-.45.13-.13.34-.51.34-.57h0c-.51-.33-.81-.42-1.29-.42Z"/>
        <path d="M146.2,168.72c0,.66-.52,1.18-1.18,1.18s-1.19-.52-1.19-1.18.53-1.18,1.19-1.18,1.18.52,1.18,1.18ZM145.68,166.51h-1.33l-.41-8.98h2.16l-.42,8.98Z"/>
        <path d="M164.22,165.09h.33c.58,0,.96-.03,1.23-.08v1.49c-.3-.04-.68-.06-1.23-.06h-.33v1.73h.57c.78,0,1.04-.02,1.41-.08v1.53c-.42-.04-.77-.06-1.44-.06h-3.27v.69h-1.53c.06-.36.08-.67.08-1.46v-6.79c-.15.2-.18.24-.38.46-.13-.4-.21-.57-.38-.87v1.33c0,.24.01.5.03.65q-.18-.02-.87-.03h-1.44v.38q-.01.15-.01.27h1.28c.54,0,.7-.02,1-.05v1.22c-.32-.03-.51-.04-1-.04h-1.35c-.04.39-.04.46-.08.73h1.67c.54,0,.72-.01,1-.04v1.26c-.28-.03-.52-.04-1.02-.04h-1.17c.62.6,1.09.92,2.1,1.37-.36.52-.52.83-.69,1.29-1.05-.54-1.75-1.11-2.46-1.96-.56,1.06-1.26,1.71-2.62,2.35-.21-.43-.53-.92-.84-1.27.81-.3,1.09-.47,1.51-.83.34-.3.55-.55.75-.95h-1.08c-.46,0-.75.02-1.08.06v-1.29c.3.04.58.06,1.08.06h1.47c.06-.3.08-.39.11-.73h-1.3c-.48,0-.78.01-1.08.06v-1.25c.31.04.58.06,1.08.06h1.39q.01-.15.03-.65h-1.52c-.51,0-.67,0-.9.03.01-.32.03-.48.03-.75v-1.72c0-.27-.02-.44-.03-.75.25.03.34.03.9.03h4.33c.39,0,.51,0,.81-.03-.02.12-.02.15-.03.3.75-.98,1.38-2.48,1.63-3.81l1.5.38c-.09.18-.12.27-.29.78-.13.38-.31.86-.54,1.37h1.16c.48-.92.71-1.53.9-2.42l1.42.33c-.39,1.06-.53,1.37-.9,2.08h.41c.69,0,1.05-.02,1.46-.08v1.49c-.33-.04-.83-.06-1.46-.06h-.36v1.47h.36c.58,0,.93-.03,1.21-.07v1.48c-.29-.06-.66-.08-1.21-.08h-.36v1.58ZM154.36,157.85c0-.35-.01-.57-.06-.84h1.5c-.03.2-.04.42-.04.84v.15h1.17v-.15c0-.41,0-.58-.04-.84h1.5c-.04.21-.06.41-.06.83v.17c.64,0,.92-.01,1.29-.06v1.39c-.3-.04-.74-.06-1.29-.06.01.54.01.55.03.82h-1.44c.02-.25.02-.3.02-.82h-1.17c0,.48,0,.58.01.82h-1.44c.02-.24.03-.39.03-.82h-.25c-.58,0-.88.01-1.2.06v-1.41c.29.06.63.08,1.21.08h.24v-.15ZM154.54,161.45v1.02h1.16v-1.02h-1.16ZM157.03,162.47h1.09v-1.02h-1.09v1.02ZM162.81,160.71h-1.32v1.47h1.32v-1.47ZM161.49,163.52v1.58h1.32v-1.58h-1.32ZM161.49,168.17h1.32v-1.73h-1.32v1.73Z"/>
        <path d="M172.3,157.66c.38.1.48.18.48.34,0,.11-.01.15-.09.36-.17.43-.29,1.2-.34,2.25-.12,2.42-.18,4.29-.18,5.77,0,.48.04.84.12,1.08.17.5.69.75,1.53.75,1.35,0,2.62-.55,3.79-1.65.54-.51.87-.92,1.42-1.74.09.48.21.79.54,1.47.04.12.08.21.08.34,0,.27-.29.63-1.04,1.3-1.49,1.33-3.13,2.03-4.86,2.03-1.14,0-1.98-.29-2.52-.83-.57-.6-.79-1.38-.79-2.86,0-1.17.01-2.07.13-5.57.02-.52.03-.84.03-.97,0-1.28-.01-1.65-.11-2.29.77.03,1.35.09,1.8.21Z"/>
        <path d="M193.53,163.3c-.69,0-1.79.22-2.54.51-1.59.62-2.64,1.74-2.64,2.83,0,.69.45,1.16,1.35,1.38.41.11,1.11.18,1.6.17h.15c.25,0,.34.09.34.29,0,.5-.09,1.18-.17,1.38-.06.12-.13.17-.29.17-.91,0-2.07-.24-2.85-.6-1.15-.51-1.79-1.4-1.79-2.5,0-.71.27-1.43.78-2.07.29-.34.51-.55,1.05-.93-2.73.83-4.09,1.35-5.01,1.95-.12.08-.19.11-.27.11-.17,0-.3-.13-.51-.51-.21-.35-.36-.77-.36-.99,0-.13.06-.18.42-.29.34-.1.58-.25,1.16-.66.69-.51,1.77-1.44,2.7-2.32.77-.74,1.2-1.19,2.1-2.24-.87.11-3.23.51-3.57.6-.21.06-.22.06-.27.06-.14,0-.2-.06-.25-.21-.12-.33-.23-.88-.3-1.51.21.01.32.01.45.01.67,0,2.13-.12,3.93-.34.67-.08,1.07-.17,1.33-.3.18-.09.21-.11.32-.11.18,0,.42.2.84.71.3.34.39.51.39.67s-.06.24-.25.38q-.27.17-1.53,1.33c-1.04.96-2.27,2.01-3.65,3.1,2.12-.63,3.22-.93,5.52-1.44.51-.11,1.01-.24,1.58-.42.08-.03.13-.04.18-.04.12,0,.18.06.25.19.17.35.36,1.08.36,1.35,0,.21-.06.3-.22.3h-.34Z"/>
        <path d="M201.03,161.09c.97-.25,1.62-.34,2.33-.34,2.13,0,3.36,1.26,3.36,3.42,0,1.88-.81,3.39-2.45,4.59-.87.64-2.19,1.29-2.62,1.29-.2,0-.24-.04-.56-.5-.22-.34-.45-.55-.82-.83,1.72-.58,2.44-.96,3.22-1.63.9-.79,1.35-1.75,1.35-2.89,0-1.22-.57-1.91-1.58-1.91-.81,0-1.86.31-3.22.97-.2.09-.3.17-.55.35-.06.03-.12.06-.18.06-.29,0-.77-.84-1.1-1.96.56-.04.84-.12,2.82-.62ZM202.03,157.43c.54.17,1.35.32,2.08.41.3.03.41.04,1.17.08.22,0,.29.06.29.22,0,.5-.11,1.31-.2,1.46-.03.09-.1.12-.21.12-.34,0-1.56-.17-2.26-.31-1.19-.24-2.22-.54-2.43-.71-.05-.04-.08-.11-.08-.17,0-.12.31-.93.46-1.21.08-.12.12-.15.21-.15q.08,0,.96.27Z"/>
        <path d="M211.75,161.99h-.09c-.08.01-.13.01-.17.01-.13,0-.21-.06-.25-.25-.09-.38-.15-.83-.18-1.41.21.02.38.02.48.02.81,0,1.75-.06,2.55-.17.15-.99.23-1.74.23-2.37v-.34c1.74.24,2.07.33,2.05.6,0,.08-.03.12-.09.25-.18.34-.2.39-.44,1.58.58-.11,1.33-.3,1.64-.41.06-.03.07-.03.12-.03.13,0,.16.06.28.58.06.3.12.72.12.84,0,.1-.04.16-.18.19q-.27.09-2.33.45c-.69,3.06-1.41,5.29-2.56,8-.08.19-.15.27-.24.27-.2,0-.72-.21-1.23-.5-.26-.13-.33-.2-.33-.29,0-.06.04-.17.12-.31,1.14-2.16,1.96-4.46,2.53-6.92-.66.08-1.12.12-2.04.2ZM218.16,167.69c.43.29,1.06.42,1.95.42.97,0,1.81-.09,2.29-.24.12-.03.15-.04.21-.04.13,0,.19.04.24.18.11.31.18.93.18,1.39,0,.2-.06.27-.25.32-.5.1-1.33.17-2.22.17-1.88,0-2.92-.3-3.61-1.02-.25-.27-.46-.6-.58-.97-.09-.22-.15-.48-.15-.57,0-.25.45-.52,1.23-.78.17.63.34.92.72,1.15ZM222.37,163.33c-.3-.04-.93-.08-1.46-.08-1.11,0-1.58.04-2.89.27-.03.02-.08.02-.11.02-.09,0-.13-.03-.17-.12-.04-.11-.1-.84-.1-1.16,0-.19.03-.29.15-.33.06-.03.15-.04.46-.1,1.02-.18,1.88-.25,2.92-.25.87,0,1.32.03,1.43.1.07.06.09.18.09.67,0,.44-.03.83-.06.92-.01.04-.08.08-.15.08-.03,0-.08,0-.12-.01ZM220.72,158.05c.2,0,1.47,1.42,1.47,1.65,0,.06-.1.19-.22.29-.06.04-.15.12-.25.21-.13.12-.18.15-.33.21t-.08.03c-.06,0-.06-.01-.34-.45-.25-.39-.74-.99-.99-1.22-.03-.03-.08-.09-.08-.1.03-.06.05-.09.05-.09.07-.09.33-.3.39-.34.15-.08.24-.14.25-.15.01-.03.03-.03.04-.03h.09ZM223.26,159.09c-.21.15-.36.24-.43.24-.06,0-.09-.03-.17-.15-.33-.54-.65-.93-1.14-1.43-.04-.04-.06-.07-.06-.12,0-.14.57-.56.76-.56.11,0,.29.15.62.5.48.5.83.95.83,1.09,0,.09-.11.2-.41.42Z"/>
        <path d="M227.1,157.94v-.21c.94.17,1.42.3,1.81.5.11.04.13.1.13.21,0,.06-.03.13-.09.24-.13.24-.18.42-.41,1.41-.28,1.29-.43,2.73-.43,4.3,0,.84.03,1.31.12,2.1l.79-1.61c.09.32.21.57.39.78.12.15.13.19.13.31s0,.12-.28.75c-.32.67-.5,1.26-.66,2.03-.04.24-.09.31-.17.34-.12.06-.63.13-.93.13-.21,0-.29-.04-.33-.18-.36-1.02-.66-3.12-.66-4.62,0-1.29.17-3.07.43-4.95.09-.62.14-1.07.14-1.38v-.17ZM232.21,162.18c-.84,0-1.08-.03-1.16-.13-.1-.13-.19-.75-.19-1.3v-.22c.6.06,1.08.09,1.84.09.58,0,.92-.02,1.51-.06-.04-1.56-.13-2.49-.31-2.97h.4c.53,0,1.17.04,1.5.12.15.03.23.12.23.24,0,.06-.02.12-.04.22-.08.21-.12.54-.12.93,0,.23.01.93.01,1.11v.15c.75-.12,1.11-.2,1.74-.41.06-.01.12-.03.18-.03.09,0,.13.04.17.13.06.17.12.75.12,1.08,0,.24-.04.35-.17.39-.2.07-1.11.25-2,.38.02.42.02.64.02.88,0,2.21-.27,3.78-.87,4.96-.54,1.06-1.71,2.31-2.19,2.31-.13,0-.19-.03-.36-.18-.5-.44-.58-.51-1.17-.78,1.05-.58,1.72-1.21,2.19-2.07.5-.91.76-2.17.76-3.55,0-.1,0-.36-.01-.72-.01-.15-.01-.38-.03-.67-.54.04-1.75.1-2.05.1Z"/>
        <path d="M244.18,162.01c-.19-.66-.25-1.06-.43-2.91-.06-.72-.12-1.08-.27-1.59.91.02,1.5.06,1.9.17.23.06.33.17.33.33,0,.06-.01.13-.04.25-.1.36-.15.63-.15,1.02,0,.73.15,1.93.32,2.46.09.28.18.39.34.39.36,0,1.68-.69,2.4-1.25.19-.15.22-.17.3-.17.13,0,.27.11.5.39.38.51.67,1.06.67,1.27,0,.17-.11.27-.36.34-.93.25-2.46.86-3.49,1.35-1.83.9-2.66,1.72-2.66,2.65s.76,1.29,2.7,1.29c1.12,0,2.14-.1,3.52-.33.06-.01.17-.03.2-.03.12,0,.19.06.25.18.04.15.15,1.06.15,1.42,0,.21-.06.29-.26.34-.33.08-2.14.18-3.28.18-1.92,0-3.2-.25-3.99-.79-.67-.47-1.04-1.2-1.04-2.1,0-.69.2-1.3.6-1.9.52-.78,1.09-1.28,2.35-2.03-.31-.29-.43-.5-.57-.96ZM249.63,158.65c.12-.09.2-.12.29-.12.21,0,1.51,1.38,1.51,1.6,0,.09-.12.23-.41.46-.3.25-.33.27-.4.27-.09,0-.11,0-.39-.42-.3-.42-.72-.9-1.04-1.17-.04-.04-.07-.09-.07-.14,0-.07.13-.21.51-.49ZM252.88,159.05c0,.09-.04.15-.23.3-.21.18-.49.38-.55.38-.09,0-.12-.04-.3-.28-.34-.5-.55-.74-1.09-1.23-.06-.06-.08-.09-.08-.13,0-.13.57-.57.75-.57.25,0,1.5,1.28,1.5,1.54Z"/>
        <path d="M254.49,166.43c.27-.24.34-.3.45-.3.19,0,1.09.66,1.75,1.29.75.69,1.59,1.69,1.59,1.9,0,.14-.03.17-.46.56-.57.52-.69.62-.79.62-.09,0-.18-.06-.25-.21-.53-.93-1.73-2.16-2.79-2.85-.12-.09-.18-.15-.18-.24,0-.1.03-.15.69-.76Z"/>
        <path d="M271.23,162.21c-.02,2.34-.08,3.13-.3,4.35-.22,1.25-.71,2.22-1.54,3.2-.22-.46-.58-.87-1.14-1.32.83-.84,1.12-1.41,1.33-2.56.18-1,.22-1.65.22-3.66-.52,0-.81.01-1.26.08v-1.54c.44.06.75.08,1.37.08h3.4c.58,0,.92-.02,1.26-.06v1.5c-.39-.03-.58-.04-1.17-.04v4.07c.54-.24.72-.33,1.2-.6v1.46c-.84.48-1.18.64-1.99.99-.86.36-.89.38-1.14.5l-.3-1.59c.24-.03.53-.09.84-.21v-4.6h-.78ZM269.02,157.73c.38.04.58.06,1.25.06h2.58c.68,0,.89-.01,1.25-.06v1.5c-.34-.04-.48-.04-1.25-.04h-2.58c-.66,0-.89.01-1.25.06v-1.51ZM276.07,158.81c-.72,0-1.12.01-1.53.07v-1.53c.41.06.76.07,1.53.07h4.05c.78,0,1.18-.01,1.56-.07v1.53c-.42-.06-.81-.07-1.56-.07h-1.29c-.12.34-.27.72-.42,1.05h1.39c.75,0,1.14-.02,1.37-.04-.03.34-.04.76-.04,1.32v4.79c0,.58.01,1.08.04,1.48-.33-.03-.74-.04-1.2-.04h-.48c.42.44.46.48.78.72.58.45,1.04.71,1.83,1.06-.48.45-.72.75-1.08,1.28-1.17-.74-1.72-1.19-2.75-2.22l1.12-.84h-3.03l1.11.89c-1.05,1.02-1.72,1.51-3.06,2.17-.25-.44-.6-.81-1.09-1.21,1.44-.54,2-.89,2.97-1.85h-.18c-.48,0-.84.02-1.1.03.02-.43.03-.84.03-1.3v-4.92c0-.66-.01-.9-.04-1.33.21.01.53.03,1.18.03h.69c.18-.39.29-.67.41-1.05h-1.21ZM276.48,161.95h3.21v-.9h-3.21v.9ZM276.48,164.01h3.21v-.9h-3.21v.9ZM276.48,166.12h3.21v-.93h-3.21v.93Z"/>
        <path d="M290.02,164.84v3.39c1.14-.24,1.32-.3,2.15-.54l.04,1.38c-1.19.35-2.5.66-3.95.92l-.73.15-.29-1.5c.39,0,.46-.01,1.3-.13v-3.66h-.24c-.38,0-.64.01-.87.03-.08,1.83-.11,2.1-.26,2.97-.22,1.27-.45,1.72-1,2.02-.28.15-.66.23-1.23.23-.45,0-.81-.02-1.33-.04-.04-.62-.12-.95-.3-1.59.66.09,1.14.13,1.48.13.46,0,.63-.09.74-.36.24-.58.36-1.51.41-3.01h-1.71c-.41,0-.56,0-.99.03.25-1.41.41-3.04.42-4.58.34.04.5.04,1.2.04h1.18v-1.75h-1.46c-.54,0-.92.02-1.26.06v-1.54c.34.06.75.09,1.35.09h1.8c.39,0,.7-.02,1.09-.06-.03.36-.04.67-.04,1.12v2.15c0,.42.01.92.04,1.33-.29-.03-.58-.04-1.02-.04h-1.42q-.08.99-.18,1.78h1.67c.36,0,.6-.01.81-.03v-.41c.33.03.63.04,1.16.04h.09v-4.72c0-.6-.01-.96-.06-1.32.51.04.9.06,1.6.06h3.76c.69,0,1.23-.03,1.62-.09v1.47c-.42-.04-.84-.06-1.56-.06h-3.92v.72h3.79c.57,0,.93-.01,1.26-.07v1.35c-.39-.04-.75-.06-1.25-.06h-3.81v.73h3.83c.61,0,.93-.01,1.23-.06v1.35c-.42-.06-.75-.08-1.25-.08h-3.81v.78h4.63c.6,0,1.02-.01,1.39-.08v1.53c-.4-.06-.78-.08-1.35-.08h-2.5c.21.64.42,1.07.79,1.58.67-.54,1.08-.93,1.5-1.49l1.12.87c-.62.64-1.12,1.11-1.72,1.56.81.69,1.36,1,2.44,1.41-.43.58-.55.83-.81,1.5-1.35-.69-2.28-1.39-3.03-2.25-.83-.96-1.32-1.89-1.68-3.18h-.9Z"/>
        <path d="M305.64,162.26c2.12,0,3.62,1.44,3.62,3.48,0,1.39-.74,2.65-1.96,3.39-.86.51-1.91.76-3.09.76-1.91,0-3.02-.76-3.02-2.07,0-1.19.99-2.03,2.4-2.03,1.27,0,2.19.64,2.8,1.96.76-.55,1.08-1.14,1.08-1.95,0-1.29-.92-2.13-2.36-2.13s-3.04.74-4.35,2.04c-.24.24-.46.5-.73.84-.11.15-.18.21-.27.21-.27,0-1.33-1.05-1.33-1.32,0-.13.06-.21.39-.45.34-.27.84-.71,1.47-1.3,1.46-1.38,2.52-2.54,4.09-4.46-1.88.24-3.13.45-3.6.62-.08.01-.12.03-.17.03-.12,0-.2-.07-.29-.3-.18-.45-.27-.94-.32-1.6.41.06.69.08,1.02.08.72,0,1.93-.11,3.51-.29.55-.06.73-.11,1.15-.27.14-.06.21-.08.3-.08.21,0,.42.18.81.78.29.39.38.58.38.71,0,.2-.04.25-.38.46-.27.17-.43.3-.78.63-.75.72-.76.72-1.69,1.67-.66.67-.74.75-1.33,1.35.97-.54,1.74-.77,2.64-.77ZM304.2,167.45c-.23-.15-.48-.23-.77-.23-.46,0-.76.23-.76.58,0,.44.46.71,1.18.71.33,0,.62-.03.99-.13-.18-.5-.33-.72-.64-.93Z"/>
        <path d="M106.56,189.81c-.69,0-1.79.23-2.54.51-1.59.61-2.64,1.74-2.64,2.83,0,.69.45,1.15,1.35,1.38.41.1,1.11.18,1.6.17h.15c.25,0,.34.09.34.28,0,.5-.09,1.19-.17,1.38-.06.12-.13.16-.29.16-.91,0-2.07-.24-2.85-.6-1.16-.51-1.79-1.39-1.79-2.5,0-.71.27-1.42.78-2.07.29-.34.51-.55,1.05-.93-2.73.83-4.09,1.35-5.01,1.95-.12.08-.19.1-.27.1-.17,0-.3-.13-.51-.51-.21-.34-.36-.76-.36-.99,0-.14.06-.18.42-.29.34-.11.58-.25,1.16-.66.69-.51,1.77-1.44,2.7-2.33.77-.73,1.2-1.18,2.1-2.23-.87.1-3.23.51-3.57.6-.21.06-.22.06-.27.06-.14,0-.2-.06-.25-.21-.12-.33-.23-.88-.3-1.51.21.01.32.01.45.01.67,0,2.13-.12,3.93-.34.67-.08,1.07-.17,1.33-.3.17-.08.2-.09.29-.09.25,0,.36.09.99.83.18.22.27.4.27.55s-.06.22-.25.36q-.25.16-1.53,1.35c-1.02.95-2.29,2.01-3.65,3.09,2.12-.63,3.22-.93,5.52-1.44.51-.1,1.01-.24,1.58-.42.08-.03.13-.04.18-.04.12,0,.18.06.26.2.17.34.36,1.08.36,1.35,0,.21-.06.3-.22.3h-.34ZM105.99,186.74c-.24-.39-.66-.9-.97-1.19-.05-.04-.08-.09-.08-.13,0-.13.6-.62.76-.62.11,0,.25.12.6.47.54.55.9,1.03.9,1.18,0,.08-.06.15-.21.29-.41.34-.53.43-.64.43-.09,0-.11-.01-.36-.43ZM107.85,184.31c.45.45.84.97.84,1.11,0,.11-.09.2-.39.42-.24.17-.38.24-.45.24-.04,0-.09-.04-.15-.13-.36-.57-.86-1.19-1.12-1.41-.08-.06-.09-.09-.09-.13,0-.13.57-.56.76-.56.11,0,.29.15.6.47Z"/>
        <path d="M117.28,194.97c0,.66-.52,1.18-1.18,1.18s-1.19-.52-1.19-1.18.53-1.18,1.19-1.18,1.18.52,1.18,1.18ZM116.76,192.76h-1.33l-.41-8.98h2.16l-.42,8.98Z"/>
        <path d="M131.74,194.97c0,.66-.53,1.18-1.18,1.18s-1.19-.52-1.19-1.18.53-1.18,1.19-1.18,1.18.52,1.18,1.18ZM131.22,192.76h-1.33l-.41-8.98h2.16l-.42,8.98Z"/>
      </g>
      <circle class="cls-9" cx="31.42" cy="194.67" r="30"/>
      <g>
        <path class="cls-6" d="M40.6,184.39c5.99-4.81,10.66-4.4,11.63-2.77.89,1.5-.2,9.39-9.11,4.98"/>
        <path class="cls-4" d="M44.84,186.97c2.15-3.69,6.52-2.97,7.64-2.44-1.95,3.62-3.96,4.96-7.64,2.44Z"/>
        <path class="cls-1" d="M47.84,188.54c-1.31,0-2.94-.38-4.99-1.39-.3-.15-.42-.51-.28-.82.15-.3.52-.42.82-.28,3.32,1.64,5.84,1.68,7.29.12,1.3-1.4,1.35-3.69,1.02-4.24-.21-.35-.72-.62-1.4-.75-.91-.16-4.27-.39-9.33,3.68-.26.21-.65.17-.86-.09-.21-.26-.17-.65.09-.86,3.68-2.96,7.53-4.43,10.31-3.92,1.04.19,1.83.66,2.23,1.32.64,1.09.43,3.95-1.18,5.69-.75.81-1.93,1.54-3.74,1.54Z"/>
        <path class="cls-6" d="M46.09,198.62c1.64-16.82-17.11-22.8-25.64-13.47-2.97,3.25-5.19,9.02-4.06,15.77-3.29,3.25-2.73,7.92,2.42,10.46,3.1,1.53,6.19,2.19,13.34,2.19,6.63,0,14.3-2.8,16.45-6.93,1.2-2.31.78-5.72-2.5-8.03Z"/>
        <path class="cls-2" d="M35.87,180.99c-.6-4.19-4.15-6.52-4.34-.47"/>
        <path class="cls-2" d="M24.18,182.05c-.51-4.2,2.31-7.38,4.07-1.58"/>
        <path class="cls-6" d="M19.73,185.11c-6.66-3.82-11.21-2.69-11.91-.92-.65,1.62,2.36,9.82,10.47,4.08"/>
        <ellipse class="cls-1" cx="35.35" cy="200.56" rx="1.44" ry="1.56" transform="translate(-30.77 7.94) rotate(-8.95)"/>
        <path class="cls-4" d="M16.46,188.93c-2.15-3.69-7.03-2.78-8.16-2.25,1.95,3.62,4.47,4.77,8.16,2.25Z"/>
        <path class="cls-4" d="M29.28,180.51c1.23,7.46-2.33,14.45-12.53,14.45,0-11.42,12.53-14.45,12.53-14.45Z"/>
        <path class="cls-4" d="M31.53,180.52c0,8.41,6.81,12.72,13.84,13.25,0-11.42-13.84-13.25-13.84-13.25Z"/>
        <path class="cls-4" d="M15.31,207.38c13.81-6.39,25.45-3.61,33.28-.74-3.13,7.57-29.25,10.15-33.28.74Z"/>
        <path class="cls-1" d="M32.14,214.19c-7.59,0-10.64-.79-13.61-2.26-2.68-1.33-4.37-3.31-4.74-5.59-.32-1.98.37-3.96,1.94-5.63-1.1-7.13,1.47-12.92,4.26-15.97,4.25-4.65,11.25-5.93,17.42-3.18,3.01,1.34,5.47,3.51,7.11,6.28,1.79,3.02,2.53,6.54,2.2,10.49,3.38,2.56,3.63,6.22,2.4,8.6-2.36,4.54-10.49,7.26-16.99,7.26ZM30.76,181.34c-3.76,0-7.35,1.46-9.87,4.22-2.64,2.89-5.06,8.42-3.91,15.26.03.2-.03.39-.17.53-1.44,1.42-2.08,3.13-1.81,4.79.3,1.88,1.75,3.54,4.07,4.69,2.8,1.38,5.71,2.13,13.07,2.13,6.88,0,14.01-2.96,15.91-6.6,1.03-1.98.75-5.1-2.31-7.25-.18-.13-.28-.34-.26-.56.71-7.25-2.49-13.19-8.56-15.89-2.01-.89-4.11-1.33-6.15-1.33Z"/>
        <path class="cls-1" d="M31.78,210.67c-1.88,0-3.48-.99-4.4-2.72l-.45.09c-.33.07-.65-.14-.72-.47-.07-.33.14-.65.47-.72l.91-.19c.28-.06.57.09.68.35.73,1.67,2.12,2.55,3.82,2.43,1.72-.13,3.25-1.27,3.64-2.72.07-.28.34-.46.62-.45l.77.04c.34.02.59.3.58.64-.02.34-.31.59-.64.58l-.31-.02c-.69,1.72-2.5,2.99-4.57,3.14-.14.01-.27.02-.41.02Z"/>
        <ellipse class="cls-1" cx="35.35" cy="200.56" rx="1.44" ry="1.56" transform="translate(-30.77 7.94) rotate(-8.95)"/>
        <ellipse class="cls-1" cx="27.68" cy="200.92" rx="1.56" ry="1.44" transform="translate(-174.38 218.41) rotate(-87.1)"/>
        <path class="cls-1" d="M13.08,190.9c-1.46,0-2.58-.54-3.4-1.18-2.09-1.64-2.9-4.58-2.43-5.75.29-.72.99-1.3,1.99-1.65,2.66-.93,6.69-.08,10.79,2.27.29.17.39.54.22.83-.17.29-.54.39-.83.22-5.62-3.23-8.91-2.48-9.78-2.18-.65.23-1.11.57-1.26.95-.21.53.31,2.97,2.06,4.35,1.89,1.49,4.48,1.14,7.49-.99.27-.19.65-.13.85.15.19.27.13.65-.15.85-2.23,1.58-4.07,2.14-5.55,2.14Z"/>
        <path class="cls-1" d="M35.87,181.6c-.3,0-.56-.22-.6-.52-.32-2.23-1.48-3.66-2.12-3.62-.31.02-.93.69-1,3.09-.01.34-.3.59-.63.59-.34-.01-.6-.29-.59-.63.11-3.61,1.4-4.22,2.15-4.27.03,0,.06,0,.09,0,1.46,0,2.94,2.06,3.31,4.67.05.33-.18.64-.52.69-.03,0-.06,0-.09,0Z"/>
        <path class="cls-1" d="M24.18,182.66c-.3,0-.57-.23-.6-.54-.32-2.66.61-5.08,2.07-5.39.74-.15,2.14.1,3.19,3.56.1.32-.08.66-.41.76-.32.1-.66-.08-.76-.41-.7-2.3-1.46-2.78-1.77-2.72-.62.13-1.38,1.81-1.11,4.05.04.33-.2.64-.53.68-.02,0-.05,0-.07,0Z"/>
        <path class="cls-1" d="M36.61,192.09c-.65-1.09-1.64-1.26-2.41-.7-.18.13-.11.42.12.44.71.07,1.33.3,1.98.61.22.1.44-.14.31-.35Z"/>
        <path class="cls-1" d="M25.72,192.5c.65-1.09,1.64-1.26,2.41-.7.18.13.11.42-.12.44-.71.07-1.33.3-1.98.61-.22.1-.44-.14-.31-.35Z"/>
        <circle class="cls-1" cx="32.99" cy="206.5" r=".57"/>
        <circle class="cls-1" cx="31.21" cy="206.5" r=".57"/>
      </g>
    </g>
  </g>
</svg>