<?xml version="1.0" encoding="UTF-8"?>
<svg id="_レイヤー_2" data-name="レイヤー 2" xmlns="http://www.w3.org/2000/svg" width="374" height="77.36" viewBox="0 0 374 77.36">
  <defs>
    <style>
      .cls-1 {
        fill: #d3e9ea;
      }

      .cls-2 {
        fill: #fff;
      }

      .cls-3 {
        fill: #479d93;
      }
    </style>
  </defs>
  <g id="_レイヤー_1-2" data-name="レイヤー 1">
    <g>
      <rect class="cls-1" x="0" y="0" width="374" height="77.36"/>
      <rect class="cls-2" x="78.41" y="14.39" width="287.86" height="51.32" rx="25.35" ry="25.35"/>
      <g>
        <path class="cls-3" d="M104.39,35.15c0-.74-.02-1.07-.1-1.57h1.84c-.08.48-.1.85-.1,1.55v1.26h.85c.34,0,.53-.02.77-.05v1.58c-.27-.03-.51-.05-.8-.05h-.82v2.34c.46-.16.69-.24,1.34-.5l.02,1.5q-.91.35-1.36.51v4.47c0,.67-.24,1.12-.69,1.26-.32.11-.91.18-1.49.18-.27,0-.48-.02-.93-.05-.06-.67-.13-.98-.37-1.6.58.08.99.11,1.36.11s.46-.08.46-.46v-3.35q-1.41.45-1.7.58l-.34-1.71c.66-.08.75-.1,2.03-.45v-2.83h-.78c-.38,0-.66.02-1.09.06v-1.63c.35.06.64.08,1.1.08h.77v-1.25ZM115.56,40.97q-.11.14-.4.62c-.8,1.33-1.39,2.11-2.24,2.93,1.18.75,2.21,1.15,3.79,1.46-.42.51-.72,1.06-.96,1.67-1.89-.58-3.01-1.1-4.19-1.98-1.25.91-2.54,1.5-4.32,2.02-.34-.69-.54-1.04-.94-1.54,1.6-.34,2.61-.75,4.02-1.63-.9-.96-1.31-1.6-1.92-2.99-.29.02-.48.03-.74.06v-1.62c.34.06.71.08,1.23.08h4.85c.42,0,.71-.02.93-.06l.9.99ZM116.57,36.67c-.18,2.3-.35,2.5-2.37,2.5-.74,0-1.1-.03-1.34-.11-.46-.16-.61-.43-.61-1.15v-2.34h-1.86c-.06,2.26-.66,3.46-2.19,4.47-.37-.48-.67-.75-1.23-1.15,1.39-.77,1.84-1.78,1.84-4.18,0-.24-.02-.43-.05-.77.29.03.66.05,1.01.05h3.17c.34,0,.67-.02.96-.05-.03.19-.05.54-.05.98v2.35c0,.24.02.3.13.34.06.03.26.05.42.05.22,0,.45-.03.51-.08.14-.11.19-.42.19-1.25v-.18c0-.11,0-.29-.02-.51.88.48,1.02.54,1.5.7l-.02.34ZM110.09,41.52c.4.78.88,1.42,1.54,2.03.74-.62,1.1-1.06,1.71-2.03h-3.25Z"/>
        <path class="cls-3" d="M125,35.91c-.45.48-.85.83-1.46,1.3-.35-.48-.62-.74-1.04-1.02,1.22-.8,2.13-1.84,2.46-2.75l1.62.29q-.11.16-.27.43c-.08.14-.19.3-.34.5h4.51c.66,0,1.01-.02,1.28-.06l.91.72c-.13.16-.16.21-.27.38-.58.83-.79,1.1-1.42,1.73-.46-.26-.86-.42-1.42-.59.5-.34.67-.5,1.02-.91h-2.37c.48,1.52,2.08,2.35,4.85,2.5-.32.54-.46.88-.62,1.5-.64-.11-.88-.16-1.41-.29-.02.45-.02.86-.02,1.31v2.85q.02,1.36.06,1.63c-.34-.03-.98-.05-1.63-.05h-.72c1.23.58,2.27.83,4.26,1.02-.38.45-.56.72-.96,1.41-2.27-.38-3.38-.77-5.01-1.76l.9-.67h-4.21l.94.67c-1.6.98-2.62,1.34-4.87,1.76-.35-.64-.48-.82-.95-1.36,2.03-.24,3.06-.51,4.1-1.07h-.62c-.72,0-1.26.02-1.63.05.03-.29.06-.91.06-1.54v-3.04c0-.7-.02-1.14-.06-1.57.3.02.88.03,1.57.03h.8c-.18-.38-.35-.64-.64-.99-.82.38-1.04.48-2.22.96-.22.1-.38.16-.66.3l-.61-1.58c1.03-.19,2.38-.69,3.76-1.38l.46,1.34-.54.27c1.07-.14,1.75-.3,2.32-.56.96-.43,1.42-.93,1.63-1.76h-1.55ZM121.73,36.41c-.88-.7-1.42-1.04-2.43-1.5l.99-1.17c1.14.53,1.58.78,2.5,1.41l-1.06,1.26ZM122.34,41h7.07v-.58h-7.07v.58ZM122.34,42.6h7.07v-.61h-7.07v.61ZM122.34,44.17h7.07v-.58h-7.07v.58ZM129.51,39.31h.53c-1.28-.46-2.02-1.06-2.62-2.03-.4.66-.75.99-1.42,1.39-.48.29-.94.46-1.73.64h5.25Z"/>
        <path class="cls-3" d="M139.64,43.1c.05.08.06.14.06.22,0,.11-.02.13-.16.48-.32.74-.7,1.89-.9,2.75-.05.18-.1.27-.16.3-.08.03-.62.11-.8.11h-.06c-.08,0-.19-.02-.32-.02-.21,0-.26-.05-.32-.24-.3-1.04-.54-3.19-.54-4.8,0-1.76.11-2.85.56-5.25.16-.86.24-1.34.3-1.87.67.13,1.25.29,1.73.51.27.11.35.19.35.35,0,.11-.02.16-.19.42-.53.85-1.12,4.24-1.12,6.53,0,.37.02.86.06,1.67.45-1.01.61-1.31.98-2.1.14.34.24.5.53.93ZM143.11,44.24c.51.27,1.12.37,2.19.37s1.63-.08,2.62-.37c.1-.03.18-.05.22-.05.11,0,.19.06.21.22.08.54.14,1.18.14,1.5,0,.16-.05.21-.27.27-.86.22-1.75.34-2.82.34-1.47,0-2.38-.18-3.14-.62-.71-.43-1.44-1.31-1.44-1.74,0-.22.34-.53,1.2-1.06.29.58.56.86,1.07,1.14ZM141.99,36.07c.35.08,1.38.14,2.16.14,1.06,0,2.11-.08,3.11-.26q.08-.02.14-.02c.11,0,.16.05.19.18.03.16.08.86.08,1.3,0,.24-.05.32-.22.35-.66.13-1.74.21-2.9.21-1.38,0-2.61-.08-2.77-.18-.08-.05-.11-.16-.11-.45,0-.43.05-1.07.08-1.2.02-.06.06-.1.16-.1.02,0,.05,0,.08.02Z"/>
        <path class="cls-3" d="M155.94,43.4c.05.06.06.11.06.18q0,.1-.27.83c-.34.98-.54,1.78-.61,2.4-.02.21-.08.29-.29.34-.22.06-.66.1-1.07.1-.16,0-.24-.03-.29-.13-.14-.3-.4-1.41-.53-2.31-.11-.75-.16-1.54-.16-2.35,0-1.84.21-3.59.78-6.72.1-.51.13-.75.18-1.25.74.1,1.25.24,1.71.46.24.13.34.24.34.38,0,.1-.03.18-.11.3-.66,1.12-1.26,4.58-1.26,7.14,0,.38.02.99.06,1.76.38-.99.56-1.44.91-2.21.11.43.22.64.54,1.07ZM158.63,39.19c-.77,0-.93-.03-.98-.21-.05-.14-.1-.66-.1-1.02,0-.13,0-.26.02-.54.43.03.69.05,1.22.05.87,0,1.41-.02,2.24-.08-.02-2.03-.03-2.29-.19-3.04.79.02,1.38.08,1.89.21.24.06.34.14.34.3,0,.06-.02.11-.06.24-.16.37-.24.99-.27,2.11.59-.08,1.11-.19,2.07-.42.08-.03.11-.03.16-.03.1,0,.14.05.18.16.03.14.08.75.08,1.09,0,.4-.02.46-.18.53-.26.13-.96.24-2.32.42,0,1.1.1,2.93.21,3.97,1.01.43,1.7.8,2.4,1.3.45.32.54.43.54.54,0,.18-.29.72-.62,1.18-.19.27-.29.35-.4.35s-.11,0-.48-.35c-.35-.35-.72-.62-1.42-1.09v.13c0,1.41-1.17,2.34-2.95,2.34s-2.99-.96-2.99-2.4,1.22-2.51,2.83-2.51c.59,0,.9.02,1.33.08q-.06-1.25-.11-3.39c-.69.05-1.78.1-2.42.1ZM159.94,43.9c-.8,0-1.33.37-1.33.93,0,.51.5.83,1.26.83.85,0,1.3-.38,1.3-1.12,0-.22-.02-.4-.02-.4-.42-.16-.78-.24-1.22-.24Z"/>
        <path class="cls-3" d="M172.92,39.27c0,.37.02,1.1.03,1.55,0,.16.02.32.02.38,0,.32-.22.38-1.47.38-.48,0-.58-.06-.58-.34v-.32c.06-1.25.1-1.94.1-3.07,0-1.86-.05-2.58-.18-3.41.82.02,1.57.06,1.94.14.22.05.35.16.35.35,0,.08-.02.13-.05.22-.13.32-.16.62-.16,1.39v2.71ZM179.15,37.19c0,2.29-.14,3.78-.45,4.9-.58,2.03-1.86,3.67-3.75,4.71-.4.22-.7.35-.82.35s-.19-.05-.3-.18c-.37-.46-.66-.72-1.22-1.09,1.02-.38,1.89-.93,2.59-1.62.82-.8,1.35-1.76,1.63-2.91.21-.91.35-2.64.35-4.48,0-1.3-.05-1.94-.16-2.53.96.02,1.54.08,2.03.18.21.05.3.13.3.29,0,.08-.02.14-.06.29-.13.35-.16.67-.16,1.42v.67Z"/>
        <path class="cls-3" d="M196.04,43.66c1.02.93,1.65,1.6,1.65,1.78,0,.14-.21.4-.7.88-.37.35-.53.46-.64.46-.06,0-.14-.03-.24-.11q-.18-.21-.91-1.04c-.88-.99-2.08-2.05-3.47-3.04-1.06,1.1-2.48,2.3-3.63,3.09-.91.62-1.78,1.1-1.97,1.1-.16,0-.18-.02-.56-.45-.22-.26-.59-.58-.99-.86,1.84-.85,3.2-1.76,4.72-3.15,1.65-1.5,2.74-2.9,4.02-5.11q-5.41.03-6.29.13c-.19.02-.22.02-.26.02-.18,0-.27-.08-.3-.26-.08-.51-.11-.99-.11-1.84,1.09.14,2.79.21,5.11.21.94,0,1.94-.03,2.46-.1.21-.02.24-.03.58-.14.06-.03.1-.03.19-.03.27,0,.56.22.94.74.3.43.48.77.48.94,0,.19-.05.26-.46.64-.26.26-.37.38-.86,1.2-.48.8-1.22,1.81-1.83,2.54,1.25.83,2.1,1.47,3.09,2.4Z"/>
        <path class="cls-3" d="M207.05,37.9c-1.1,1.47-2.99,3.23-3.46,3.23-.14,0-.21-.03-.53-.3-.24-.21-.66-.5-1.18-.8,1.14-.62,2.3-1.57,3.19-2.62.94-1.1,1.5-2.03,2.06-3.44.78.26,1.2.43,1.73.74.22.13.3.21.3.35,0,.13-.05.21-.19.32-.16.11-.32.32-.74.88l2.38.02c.86,0,1.02-.02,1.5-.19.06-.02.11-.03.18-.03.26,0,.53.24.99.83.3.4.38.54.38.72s-.05.26-.27.48c-.13.14-.34.45-.5.72-1.73,3.12-3.39,5.09-5.94,6.99-1.1.83-2.56,1.68-2.87,1.68-.13,0-.24-.06-.38-.22-.27-.29-.7-.59-1.33-.93,2.34-1.12,3.97-2.24,5.57-3.86,1.14-1.15,1.94-2.24,2.64-3.57.14-.27.24-.48.5-1.01l-4.05.02Z"/>
        <path class="cls-3" d="M221.7,38.67c-1.14-.22-2-.56-2.59-.98-.29-.19-.35-.27-.35-.42,0-.18.13-.5.58-1.39.78.5,1.67.85,2.67,1.06.22-1.12.32-2.05.34-3.09.82.14,1.54.38,1.94.61.18.1.24.19.22.32,0,.06-.03.13-.11.29-.24.5-.26.54-.59,2.11.16.02.37.02.5.02h.11c.38-.02.67-.02.82-.02h.05c.14,0,.19.06.19.27,0,.7-.05,1.28-.11,1.39-.05.08-.26.11-.93.11-.3,0-.54-.02-.99-.03q-.34,1.65-.48,2.51c.54.05.66.05.93.05l.9-.02c.16,0,.24.03.29.11.06.1.11.61.11,1.18,0,.29-.02.37-.11.42-.08.03-.43.05-1.04.05-.29,0-.72-.02-1.28-.05-.02.29-.02.48-.02.61,0,1.47.69,2.15,2.19,2.15,1.68,0,2.69-.82,2.69-2.19,0-.5-.11-.94-.37-1.44-.32-.61-.62-.96-1.39-1.57h.14c.26,0,.8-.08,1.28-.18.26-.05.35-.06.43-.06.24,0,.4.11.72.51.74.9,1.1,1.84,1.1,2.83,0,2.26-1.82,3.75-4.59,3.75-2.59,0-3.89-1.3-3.89-3.92,0-.22,0-.4.03-.67-1.58-.34-2.45-1.12-2.45-2.26,0-.59.18-1.02.62-1.47.05-.06.11-.08.18-.08.1,0,.21.08.58.38.29.24.34.29.34.37q0,.06-.1.21c-.06.11-.13.29-.13.38,0,.21.13.38.37.5.22.11.29.13.8.24l.42-2.59Z"/>
        <path class="cls-3" d="M238.15,37.51c-.74.05-1.42.06-2.03.06-.67,0-.72,0-.75-.1-.05-.1-.1-.77-.1-1.23v-.3c.75.03,1.07.05,1.47.05s1.01-.02,1.49-.03c.08-.93.1-1.25.1-1.57,0-.14,0-.24-.02-.46.77.02,1.36.06,1.82.18.13.03.19.1.19.21,0,.08-.02.14-.1.34-.13.3-.22.72-.29,1.22,1.02-.08,2.26-.24,2.75-.35.48-.11.82-.18.9-.18.34-.03.58-.1.67-.18.02-.02.03-.02.03-.02.03,0,.05.02.08.02.06,0,.11.06.14.18.03.24.08.8.08,1.15,0,.24-.05.3-.21.34-.94.19-2.9.43-4.58.58-.02.06-.02.1-.02.26-.03.3-.03.34-.05,1.14.7-.16,1.33-.24,2.11-.24.11-.51.13-.64.16-1.01,1.23.26,1.84.48,1.84.67,0,.06-.02.11-.14.32-.05.06-.08.11-.11.22,2.06.48,3.38,2,3.38,3.97,0,1.74-.95,3.14-2.75,4.1-.67.35-1.62.67-1.97.67-.18,0-.3-.06-.4-.19-.34-.48-.54-.7-1.06-1.14,1.67-.3,2.48-.64,3.28-1.3.74-.62,1.09-1.34,1.09-2.24,0-1.28-.75-2.24-2.03-2.61-.96,2.21-1.6,3.25-2.75,4.43.08.27.14.43.29.77.06.13.08.18.08.22,0,.16-.06.21-.43.4-.4.21-.86.37-1.02.37-.14,0-.18-.05-.35-.54-.93.66-1.92,1.01-2.9,1.01-1.09,0-1.83-.88-1.83-2.16,0-2,1.46-3.95,3.87-5.15.02-.83.03-1.54.05-1.86ZM235.89,44.24c0,.4.24.64.64.64.54,0,1.27-.3,1.99-.83-.22-1.09-.32-1.82-.4-3.03-1.41,1.04-2.23,2.24-2.23,3.22ZM241.5,39.82c-.72.06-1.1.13-1.76.35.03,1.14.06,1.62.19,2.43.67-.85,1.12-1.65,1.57-2.78Z"/>
        <path class="cls-3" d="M258.74,39.23c2.26,0,3.86,1.54,3.86,3.71,0,1.49-.78,2.83-2.1,3.62-.91.54-2.03.82-3.3.82-2.03,0-3.22-.82-3.22-2.21,0-1.26,1.06-2.16,2.56-2.16,1.36,0,2.34.69,2.99,2.1.82-.59,1.15-1.22,1.15-2.08,0-1.38-.98-2.27-2.51-2.27s-3.25.78-4.64,2.18c-.26.26-.5.53-.78.9-.11.16-.19.22-.29.22-.29,0-1.42-1.12-1.42-1.41,0-.14.06-.22.42-.48.37-.29.9-.75,1.57-1.39,1.55-1.47,2.69-2.71,4.37-4.75-2,.26-3.34.48-3.84.66-.08.02-.13.03-.18.03-.13,0-.21-.08-.3-.32-.19-.48-.29-1.01-.34-1.71.43.06.74.08,1.09.08.77,0,2.06-.11,3.75-.3.59-.06.78-.11,1.23-.29.14-.06.22-.08.32-.08.22,0,.45.19.86.83.3.42.4.62.4.75,0,.21-.05.27-.4.5-.29.18-.46.32-.83.67-.8.77-.82.77-1.81,1.78-.7.72-.78.8-1.42,1.44,1.04-.58,1.86-.82,2.82-.82ZM257.21,44.77c-.24-.16-.51-.24-.82-.24-.5,0-.82.24-.82.62,0,.46.5.75,1.27.75.35,0,.66-.03,1.06-.14-.19-.53-.35-.77-.69-.99Z"/>
        <path class="cls-3" d="M269.4,36.79c.37-.96.72-1.47,1.33-1.98.74-.61,1.62-.9,2.74-.9,2.4,0,3.94,1.31,3.94,3.36,0,.69-.19,1.34-.56,1.87-.29.42-.42.54-1.31,1.36-1.25,1.12-1.52,1.55-1.52,2.4v.85h-1.63v-.9c0-.72.14-1.36.43-1.87.22-.4.46-.67,1.11-1.31.67-.66.88-.9,1.06-1.18.22-.32.35-.77.35-1.2,0-1.07-.72-1.74-1.86-1.74s-1.81.59-2.29,1.98l-1.78-.74ZM274.5,46.13c0,.7-.56,1.26-1.26,1.26s-1.26-.56-1.26-1.26.56-1.26,1.26-1.26,1.26.56,1.26,1.26Z"/>
      </g>
      <g>
        <g>
          <path class="cls-3" d="M28.45,36.41c.02-1.97.63-3.49,1.83-4.55,1.13-1.05,2.47-1.58,4.03-1.58s2.98.53,4.1,1.58c1.15,1.06,1.74,2.58,1.77,4.56v9.42c-.04,1.96-.63,3.48-1.77,4.54-1.13,1.05-2.5,1.59-4.1,1.61-1.56-.02-2.91-.56-4.03-1.61-1.2-1.06-1.81-2.57-1.83-4.53v-9.44ZM37.24,36.61c-.06-2.14-1.03-3.23-2.92-3.27-1.9.04-2.87,1.13-2.91,3.27v9.07c.04,2.16,1.01,3.25,2.91,3.27,1.89-.02,2.87-1.11,2.92-3.27v-9.07Z"/>
          <path class="cls-3" d="M43.35,30.46h11.03v3.05h-8.25v4.87c.97-.78,2.07-1.17,3.32-1.17.8.02,1.53.17,2.19.44.63.3,1.13.67,1.52,1.11.58.59.99,1.26,1.24,2.04.13.42.23.93.28,1.54.06.61.08,1.37.08,2.27,0,1.39-.09,2.45-.28,3.19-.2.73-.53,1.38-.99,1.95-.41.55-1,1.06-1.77,1.52-.76.48-1.66.72-2.7.74-1.4,0-2.68-.43-3.85-1.29-1.18-.88-1.92-2.29-2.2-4.25h2.97c.32,1.64,1.31,2.48,2.97,2.5.71,0,1.28-.15,1.71-.44.41-.28.69-.66.85-1.12.17-.46.28-.96.31-1.5.02-.53.03-1.04.03-1.54.02-1.22-.17-2.22-.56-2.98-.21-.36-.52-.65-.93-.87-.41-.18-.92-.26-1.53-.26-.54,0-1.04.13-1.48.38-.45.26-.85.72-1.2,1.38h-2.78v-11.54Z"/>
        </g>
        <path class="cls-3" d="M19.56,43.68c-.76.79-1.8,1.41-3.01,1.81-.17-.32-.31-.52-.56-.82,1.2-.29,2.21-.79,2.94-1.47h-1.5c-.05.18-.06.22-.13.43l-1.01-.02c.24-.56.38-1.02.49-1.58.08-.39.14-.77.14-.95.17.02.4.03.82.03h1.78l-.02-.58h-1.93c-.34,0-.56,0-.8.04v-.83c-.1.08-.13.12-.26.23-.17-.29-.35-.5-.56-.69.74-.57,1.16-1.12,1.35-1.76l.93.17c-.11.23-.14.29-.25.47h1.11c.41,0,.64-.02.85-.04v.7c.34-.4.55-.78.7-1.3l.92.16q-.07.17-.22.49h1.65c.46,0,.67,0,.95-.05v.9c-.26-.04-.52-.05-.9-.05h-.68c.23.33.23.35.38.59l-.71.2h.41c.43,0,.59,0,.81-.03-.03.16-.04.3-.04.61v.91c0,.31,0,.45.04.63-.2-.02-.47-.03-.81-.03h-1.99v.57h2.47c.33,0,.52,0,.74-.03-.02.11-.02.17-.03.26t-.03.26s-.02.22-.05.55c-.09.86-.14,1.07-.31,1.27-.17.2-.43.26-1.02.26-.25,0-.43,0-.8-.03-.05-.36-.11-.56-.22-.85.33.04.74.08.95.08.47,0,.49-.05.55-1.01h-2.22l.02,1.45c0,.46.02.68.06.95h-1.02c.04-.25.05-.4.05-.75v-.22l-.02-.96ZM18.33,39.77c-.11-.29-.22-.5-.39-.8h-.48c-.21.29-.4.5-.68.77.21.03.38.04.79.04h.75ZM19.54,41.87h-1.77c-.03.19-.04.21-.12.57h1.9v-.57ZM20.03,39.77c-.13-.16-.31-.33-.56-.51.15-.12.2-.15.32-.27-.15,0-.32-.02-.49-.02h-.48c.11.17.17.26.34.58l-.71.22h1.58ZM21.86,39.77c-.1-.22-.26-.51-.44-.79h-.53c-.23.33-.42.55-.69.79h1.67ZM20.44,41.11h1.87v-.58h-1.88v.58Z"/>
        <path class="cls-3" d="M66.99,45.58v-.47h-5.38v.47h-1.01c.04-.28.05-.64.05-1.12v-5.46c0-.42-.02-.69-.05-1.04.32.04.59.05,1.02.05h5.36c.42,0,.7,0,1.02-.05-.04.32-.04.6-.04,1.04v5.47c0,.47.02.89.04,1.11h-1ZM61.6,44.25h5.38v-5.39h-5.38v5.39ZM65.2,39.84c.38,0,.6,0,.83-.03-.02.21-.03.41-.03.68v2.06c0,.29,0,.47.03.68-.26-.02-.47-.03-.83-.03h-1.85c-.43,0-.57,0-.84.03.03-.23.04-.42.04-.68v-2.06c0-.25,0-.45-.04-.68.22.02.46.03.84.03h1.85ZM63.47,42.41h1.63v-1.76h-1.63v1.76Z"/>
      </g>
    </g>
  </g>
</svg>